/* XPM */
static char *result[] = {
/* columns rows colors chars-per-pixel */
"64 64 231 2 ",
"   c #08060D",
".  c #171519",
"X  c #221E1F",
"o  c #211E21",
"O  c #282322",
"+  c #373027",
"@  c #5D1419",
"#  c #680B0C",
"$  c #7D0A0C",
"%  c #7B0608",
"&  c #6A1616",
"*  c #741616",
"=  c #75251B",
"-  c #553130",
";  c #682328",
":  c #753A28",
">  c #6A3A36",
",  c #702C2C",
"<  c #701B21",
"1  c #564C38",
"2  c #794C38",
"3  c #7E5239",
"4  c #7D5136",
"5  c #704B35",
"6  c #5E3F4B",
"7  c #6D3D41",
"8  c #5D454C",
"9  c #574B59",
"0  c #5E5554",
"q  c #6B4A47",
"w  c #744B47",
"e  c #664B51",
"r  c #6C545A",
"t  c #795A5C",
"y  c #735051",
"u  c #5A5664",
"i  c #675E69",
"p  c #5C687C",
"a  c #76656B",
"s  c #7B757C",
"d  c #6A6A74",
"f  c #6E695F",
"g  c #890406",
"h  c #930000",
"j  c #9A0002",
"k  c #950309",
"l  c #801214",
"z  c #AC0102",
"x  c #A60507",
"c  c #B30000",
"v  c #BB0709",
"b  c #AD0C12",
"n  c #C30000",
"m  c #CA0307",
"M  c #D40102",
"N  c #DB0000",
"B  c #D4060B",
"V  c #CA1516",
"C  c #D71E1E",
"Z  c #DB1B1C",
"A  c #DC1516",
"S  c #CC0D12",
"D  c #E60102",
"F  c #ED0000",
"G  c #ED0D0D",
"H  c #E7090A",
"J  c #F60505",
"K  c #FE0101",
"L  c #F40807",
"P  c #F30A0A",
"I  c #FC0B0A",
"U  c #F90708",
"Y  c #F8100F",
"T  c #EA0F10",
"R  c #E51313",
"E  c #EB1312",
"W  c #E31B1B",
"Q  c #E81B1A",
"!  c #FA1413",
"~  c #F81919",
"^  c #E8211F",
"/  c #D71E20",
"(  c #DD2323",
")  c #D42121",
"_  c #CF2021",
"`  c #E52626",
"'  c #F52928",
"]  c #F63535",
"[  c #F4302F",
"{  c #825639",
"}  c #834B33",
"|  c #9A6A3C",
" . c #F5413F",
".. c #946942",
"X. c #9D7E51",
"o. c #957149",
"O. c #A77947",
"+. c #A17F52",
"@. c #957675",
"#. c #876F71",
"$. c #A85958",
"%. c #F64948",
"&. c #F65958",
"*. c #F35352",
"=. c #F56A6A",
"-. c #F46564",
";. c #F77978",
":. c #958357",
">. c #AE8C57",
",. c #B69E6A",
"<. c #B8A36B",
"1. c #C59C5B",
"2. c #C9A15E",
"3. c #C7AA69",
"4. c #CEB571",
"5. c #D7BB75",
"6. c #D3B36D",
"7. c #DEC37A",
"8. c #E8C879",
"9. c #F5D37D",
"0. c #EFD27F",
"q. c #5E6E85",
"w. c #787A88",
"e. c #667888",
"r. c #837881",
"t. c #78899A",
"y. c #7C878E",
"u. c #6487A2",
"i. c #6F93AC",
"p. c #76A6BF",
"a. c #6DA4C6",
"s. c #78ACC9",
"d. c #77B6D9",
"f. c #7AB1CF",
"g. c #7FCCF5",
"h. c #88838A",
"j. c #8F8C94",
"k. c #AD9290",
"l. c #B2A494",
"z. c #85A1B4",
"x. c #92A5B1",
"c. c #BBA8A3",
"v. c #B2B2B1",
"b. c #949BA3",
"n. c #F68685",
"m. c #F99797",
"M. c #F4908F",
"N. c #F69FA0",
"B. c #CAB3B2",
"V. c #F6A8A7",
"C. c #F8B9B8",
"Z. c #DEC481",
"A. c #F6D682",
"S. c #F8D783",
"D. c #F6D984",
"F. c #FADA85",
"G. c #FDDE88",
"H. c #E9CE82",
"J. c #FFE38B",
"K. c #FFE98E",
"L. c #FFE187",
"P. c #FFEC91",
"I. c #FFF193",
"U. c #CBC1A9",
"Y. c #F8C0BF",
"T. c #8AB6CF",
"R. c #A7B8C0",
"E. c #9FC1CB",
"W. c #8FC3DB",
"Q. c #A9CAD5",
"!. c #B8CAD3",
"~. c #B8D2DB",
"^. c #A9C5CC",
"/. c #87CDFC",
"(. c #88CFFC",
"). c #8AD2FF",
"_. c #8DDBFF",
"`. c #8AD2F5",
"'. c #92D5FF",
"]. c #94D9FF",
"[. c #9BDBFF",
"{. c #9AD8F9",
"}. c #8DCBE9",
"|. c #A8D6E7",
" X c #A4DEFE",
".X c #A6DAF5",
"XX c #B0DDE9",
"oX c #93E1FF",
"OX c #9CE3FF",
"+X c #BCE7EE",
"@X c #A3E1FE",
"#X c #ABE2FE",
"$X c #AAECFF",
"%X c #A5EAFF",
"&X c #B2E3FA",
"*X c #B2ECFF",
"=X c #BDEBFE",
"-X c #B8E6FC",
";X c #ADF1FF",
":X c #B3F3FF",
">X c #BBF3FF",
",X c #BEF9FF",
"<X c #C4D6DE",
"1X c #D4CFD0",
"2X c #F7C9C8",
"3X c #E6DADA",
"4X c #F8D9D8",
"5X c #EDE0DE",
"6X c #C6DDE5",
"7X c #C8E1E9",
"8X c #C4EDFE",
"9X c #CAEEFC",
"0X c #C7ECF5",
"qX c #C4F1FF",
"wX c #CCF2FE",
"eX c #C3FAFF",
"rX c #CCFCFF",
"tX c #D4F6FF",
"yX c #D9F6FC",
"uX c #D6F9FF",
"iX c #DAFAFF",
"pX c #D6F2F5",
"aX c #D1EDF6",
"sX c #FAEBEB",
"dX c #F5E7E6",
"fX c #F8F0EF",
"gX c #E3FFFF",
"hX c #FAF5F4",
"jX c #FFFEFE",
"kX c #F7F2F1",
"lX c #EAE7E6",
/* pixels */
").(.(.(.(.(.).(.).(.(.(.).).).(.(.(.(.(.(.).(.).(.).(.g././././././.(.(.(.(.(.).(.(.).(.(.(.(.).g.).g.).(.(.).(.).(.g.).).).g.).",
"(.(.).).).).).(.).).).).g.).g.).(.).).).(.).).(.(.(.)._._._._._.oX_._._.).(.(.(.(.(.).).).).).).).).).).).).).(.).).).).).(.).).",
").).).).).).).).).).).).).)._.).).).).).)./.)._._._.g.d.a.i.u.u.u.i.a.d.g._._._.).).(.).).).).).).).).).).).).).).).).).).).).).",
").).).).).).'.).).).).).).).).).`.).).)._.oX`.a.q.6 ; g j z c c z x h % ; 8 e.a./.oX_.).(.).).).).).).).'.).).).).).).).).).).).",
")._.).'.).).).).).'.'.).).).).).`.(.].].f.p ; g n D K ' *.;.m.m.m.;.%.! K D n h ; p d.oX].).`.)._.).'.).).'.'.).)._.).)._.)._.).",
").)._.).).'.'.).'.).).)._.).)._._.oXf.9 % v J K I &.C.kXjXjXjXjXjXjXjXkXV.%.K K J n % 9 f.oX'.`.).).).).).).).).'.).'.).).).).).",
"'.'.).'.'._.'.).'.).).'.`._.'.OXg.9 % M K K J %.4XjXjXjXjXjXjXjXjXhXjXjXjXjXC.' J I K M % u g.[._.'.`.'.].'.).'.'.'.'.'.'._.'.'.",
"'.'.'.'.'.'.'.'.'.'.'.'.'.].[.u.& m K K K J n.jXjXjXjXjXjXjXjXjXjXjXjXjXhXjXjXkX&.K I K K n & u.oX].'.'.'.'.'.'.).'.'.).'.'.'.'.",
"'.'.'.'.'.'.'.'.'.'.'.'.[.}.9 h L K K K J V.jXjXjXjXjXjXjXjXjXjXjXjXjXjXjXjXjXjXjX;.K K K K L h 9 `.[.`.'.'.'.'.].'.'.'.'.'.'.'.",
"'.'.'.'.'.'.'.'.'.].`.OXd.- n K K K K K M.jXhXjXjXjXjXjXjXjXjXjXjXjXjXjXjXjXjXjXjXjX-.K K K K K c - W.OX'.'.'.'.].'.'.'.'.'.'.'.",
"{.'.'.].'.].].].].'.OXs.@ N K K K K K -.jXjXjXjXjXjXjXjXjXjXjXjXjXjXjXjXjXjXjXjXjXjXhX] K K K K I N @ f.[.'.].].].'.].].{.'.{.'.",
"].{.].'.].{.{.].'.@Xp.# F K K K K K ~ dXjXjXjXjXjXjXjXjXjXjXjXjXjXjXjXjXjXjXjXjXjXhXjX2XL K K K K K D @ T.OX].].].].].'.].].].{.",
"{.].{.].{.].{.].%Xs.# F K K K K K K M.jXjXjXjXjXjXjXjXjXjXjXjXjXjXjXjXjXjXjXjXjXjXjXjXjX*.K K K K K K D @ T.OX{.].{.].{.{.].{.].",
"{.].{.{.].{.].[.W.@ D K K K K K K ~ dXjXjXjXjXjXjXjXjXjXjXjXjXjXjXjXjXjXjXjXjXjXjXjXjXjXC.J K K K K K K N - `.[.{.].{.].].{.{.{.",
"{.[.[.[.[.[.[.{.- M K K K K K K K &.jXjXjXjXjXjXjXjXjXjXjXjXjXjXjXjXjXjXjXjXjXjXjXjXjXjXjX' K K K K K K K n 9 OX{.{.[.[.[.[.[.{.",
"[.[.[.{.[.{.%Xu c I K K K K K I K m.jXjXjXjXjXjXjXjXjXjXjXjXjXjXjXjXjXjXjXjXjXjXjXjXjXjXjX=.K K K K K K K K j e.%X{.[.{.[.{.[.[.",
"[.[.[.[.{.$Xi.g I K K K K K K K K 2XjXjXjXjXjXjXjXjXjXjXjXjXjXjXjXjXjXjXjXjXjXjXjXjXjXhXjXm.K I K K K K K K I < T.@X{.[.[.[.[.[.",
"[.[.[.[.@XW.8 *.K K K K K K K K I dXjXjXjXjXjXjXjXjXjXjXjXjXjXjXjXjXjXjXjXjXjXjXjXjXjXjXjXC.K K K K K K K K ~ B.8 @X[.[.[. X[.[.",
"[. X[.[.$Xi v.Y.K K K K K K K K ! sXjXjXjXjXjXjXjXjXjXjXjXjXjXjXjXjXjXjXjXjXjXjXjXjXjXjXjX2XK K K K K K K K ~ jX@.y.%X{. X[.@X[.",
" X[.[.$XT.y jX4XI K K K K K K K ! sXjXjXjXjXjXjXjXjXjXjXjXjXjXjXjXjXjXjXjXjXjXjXjXjXjXjXjXC.K K K K K K K K [ jX5X8 {.OX[.[. XOX",
" X X{.%X9 B.jXjX[ K K K K K K K K 4XjXjXjXjXjXjXjXjXjXjXjXjXjXjXjXjXjXjXjXjXjXjXjXjXjXjXjXV.K K K K K K K K %.jXjX@.t.$X X[.@X X",
" X X$XT.y jXhXjX*.K K K K K K K J C.jXjXjXjXjXjXjXjXjXjXjXjXjXjXjXjXjXjXjXjXjXjXjXjXjXjXjXn.K K K K K K K K *.jXjX3X8  X@X XOX X",
" X X;Xd c.jXjXjX=.K K K K K K K K n.jXjXjXjXjXjXjXjXjXjXjXjXjXjXjXjXjXjXjXjXjXjXjXjXjXjXjX*.K K K K K K K K &.jXjXjX#.z.*X X X X",
" X X|.e hXjXhXjXn.K K K K K K K K ] jXjXjXjXjXjXjXjXjXjXjXjXjXjXjXjXjXjXjXjXjXjXjXjXjXjXdX~ K K K K K K K K &.jXhXjXB.i *X X X X",
" X*Xb.@.jXjXjXjX6.K I K K K K K K J 2XjXjXjXjXjXjXjXjXjXjXjXjXjXjXjXjXjXjXjXjXjXjXjXjXjXm.K K K K K K K K K &.jXjXjXfXe |.#X#X@X",
" X:Xu B.jXhXjXjX;.K K K K K K K K K &.jXjXjXjXjXjXjXjXjXjXjXjXjXjXjXjXjXjXjXjXjXjXjXjXkX' K K K K K K K K K *.jXjXjXjX#.z.$X X#X",
"#X.Xr kXjXjXjXjX=.K I K K K K K K K K C.jXjXjXjXjXjXjXjXjXjXjXjXjXjXjXjXjXjXjXjXjXjXjXn.K K K K K K K K K K %.jXjXhXjXc.d >X X#X",
"*XT.t jXjXjXjXjX%.K K K K K K K K K K ' sXjXjXjXjXjXjXjXjXjXjXjXjXjXjXjXjXjXjXjXjXjX2XP K K K K K K K K K K ] jXjXjXjX3Xr *X X#X",
",Xt.@.jXjXjXjXhX' K K K K K K K K K K K %.hXjXjXjXjXjXjXjXjXjXjXjXjXjXjXjXjXjXjXjX4X~ K K K K K K K K K K K ~ hXjXjXjXhXr .X-X#X",
",Xs B.jXjXjXjX2XK K K K K K K K K K K K J %.kXjXjXjXjXjXjXjXjXjXjXjXjXjXjXjXjXjX4X' K K K K K K K K K K K K P 4XjXjXjXjXt T.*X#X",
":Xi 1XjXhXjXjXM.K K K K K K K K K K K K K K ' 2XjXjXjXjXjXjXjXjXjXjXjXjXjXjXjXV.! K K K K K K K K K K K K K K V.jXjXjXjX@.z.>X&X",
"*Xr 3XjXjXjXjX] K K K K K K K K K K K K K K K L =.4XjXjXjXjXjXjXjXjXjXjXjX2X%.J K K K K K K K K K K K K K K K ;.jXjXhXjXj.j.qX X",
"#Xr sXjXjXjXC.J K K K K K K K K K K K K K K K K K I *.V.4XhXjXjXjXsX2Xm. .J K K K K K K K K K K K K K K K K K ] jXjXhXjXk.w.,X&X",
"&Xr kXjXjXjX*.K K K K K K K K K K K K K K K K K K K K K U ~ ' ] ' ~ J K K K K K K K K K K K K K K K K K K K K K 2XjXjXjXc.w.,X&X",
"&Xr kXjXjXC.K K K K K K K K K K K K K K K K K K K K K K K K K K K K K K K K K K K K K K K K K K K K K K K K K K =.jXhXjXc.w.,X&X",
"-Xr lXjXkX[ K K K K K K K K K K K K K K K K K K K K K K K K J K K K K K K K K K K K K K K K K K K K K K K K K K P 4XjXjXl.w.eX&X",
">Xr 3XjX=.K K K K K K K K K K K K K K K K K K K K K K K K K K K K K K K K K K K K K K K K K K K K K K K K K K K K %.jXjXk.r.,X&X",
"eXa 1XC.J K K K K K K K K K K K K K K K K J K P P P G T E E R T R T R E E G G P K J K K K K K K K K K K K K K K K J ;.jX@.x.qX-X",
"eXt.$.! K K K K K K K K K K K K K J K P P G G G T E T E E E ~ E E R R R A A A A Z W R T G K K K K K K K K K K K K K K n.t Q.>X=X",
"qXE.g K K K K K K K K K K K K J L P G G G G G E Y ! G H B B m m m B A E E ~ Q Q A A Z Z Z Z R G K K K K K K K K K K K D 7 =X=X=X",
">X=X> F K K K K K K K K U J P P P P G G I ! P B z g l = = 4 } } 2 : = = $ g v A Q ^ W Z A Z Z Z Z R P K K K K K K K I v w.eX=X=X",
"=XrXy.c I K K K K K K J P P P P P G Y I M j * : o.,.7.0.F.L.J.K.J.J.D.0.4.>.{ = $ x A Q W C Z Z Z / C W P K K K K J ^ * E.qX=X=X",
"=XqXXX* K L K K K J J P P P P P I L v % : >.8.J.P.P.J.D.9.F.F.9.S.S.F.G.J.I.K.A.3...= g S ^ W Z / Z / ) C A K K L ( V y eX=X=X=X",
"=X=XrXy.z U J K U P J J J P P I m % } 4.G.P.G.D.7.<.0.L.G.F.F.F.F.F.F.F.0.,.7.L.J.K.H.>.: $ v ` / / Z ) Z ) C Z _ ( $ E.rX=X=X8X",
"8X8X8X8X7 N I K K P J J P I I h : 4.K.J.D.S.G.9.U.<X,.L.F.F.F.F.F.F.F.L.,.<XU.0.D.A.G.K.G.<.: % Z ( / Z C C / _ ` x s rX=X8X8X8X",
"8X8X8XeX|.& F I L L J P I D # :.J.J.S.D.D.D.G.8.3XjXl.0.G.F.F.F.F.F.G.9.l.jX3X8.G.D.F.S.S.J.J.>.# V / / / C / ( v w qX8X8X8X8X8X",
"8X8X8X8XrX^.* D I L L U H & <.P.D.D.F.F.F.F.G.Z.lXjXc.8.G.F.F.F.F.D.G.8.v.jXlX8.G.D.G.F.F.F.9.P.<.* Z / C / ` v 7 +XwX8X8X8X8X8X",
"8XqXqX8X8XrXQ., M I P I c o.P.A.F.F.F.F.F.S.J.3.f h.0 9.F.F.F.F.F.F.G.8.f v.h.4.L.D.F.F.F.F.G.9.P.{ b / ( ` x y +XeX8XqXqXqXqX8X",
"qXqX9XqXqX9XtX+Xr x J Y c +.J.F.F.F.F.F.F.S.J.3.    + F.F.F.F.F.D.D.D.A.+   . 4.L.F.F.F.F.F.F.F.J...b ` S g :.rXqX9X9X9XqXqX9XwX",
"wX9XwX9X8X9X9XwXrXx., n z +.K.A.F.F.F.F.F.D.J.4.o O - F.F.F.F.F.G.D.L.A.+ X X 4.J.D.F.F.F.F.F.D.J.X.j b w E.rXqX9X9XwX9X9XqX9X9X",
"wXqXwX9XqXwXwXwX0XiX0Xb.; ..K.D.F.F.F.F.F.S.L.4.o . 1 D.F.F.F.F.D.D.L.D.- . O 5.L.D.F.F.F.F.F.9.P...- v.wXuX0XwXqXwXqXqXqXwXqXwX",
"wXwXwXwXwXwXwXwXwX9XwXiXQ.4 J.F.F.F.F.F.F.F.L.8.O . 0 K.D.F.F.F.F.G.D.K.1 . + H.G.F.F.F.F.F.F.D.K.3 Q.iX9XwXwXwXwXwXtX9XtXwXwXwX",
"tXwXwXtXwXwXwXwXwXwXpXwXqXw 8.L.F.F.F.F.F.F.D.G.1   :.K.F.G.F.F.F.F.A.K.:.  1 L.F.F.F.F.F.F.F.G.A.q 0X9XwXwXwXwXwXwXwXwXwXwXwXwX",
"wXwXwXwXwXwXtXwXwXwXwXwXiXs >.P.D.F.F.F.F.F.D.L.4.:.A.F.F.D.F.F.F.F.F.G.0.:.5.L.F.F.F.F.F.F.F.K.1.a iX9XwXwXwXwXwXwXtXwX9XtXtXwX",
"tXwXtXwXtXwXtXwXwXtXwXwXyX!.2 J.S.D.F.F.F.F.F.F.L.K.L.F.F.F.F.F.F.F.F.S.G.K.G.S.F.F.F.F.9.L.9.P.4 v.uXtXtXwXtXwXtXwXtXwXtXwXwXwX",
"wXtXwXtXtXwXwXtXuXwXwXpXwXyXa >.I.S.F.F.F.F.F.F.D.0.D.F.F.F.F.F.F.F.F.F.D.9.D.F.F.F.F.F.L.9.I.>.r iXrXeXwXtXwXtXwXtXwXtXwXwXtXtX",
"tXtXtXtXtXtXtXtXtXwXtXtXtXtXaX> 6.K.9.F.F.F.F.F.F.F.F.F.F.F.F.F.F.F.F.F.F.F.F.F.F.F.F.F.S.K.5., 6XiXtXtXtXtXtXtXtXtXtXtXtXtXtXtX",
"tXtXtXtXtXtXtXtXtXuXtXtXtXtXuX~.- 1.I.D.S.F.F.D.F.F.F.F.F.F.F.F.F.F.F.F.F.F.F.F.D.D.S.F.P.6.- !.iXwXtXtXtXtXtXtXtXtXtXtXtXtXtXtX",
"tXtXtXtXtXtXtXtXtXtXtXtXtXtXtXiX6Xq | S.P.G.S.S.S.D.F.F.F.F.F.F.F.F.F.F.D.D.S.A.F.L.P.D.O.> ~.iXtXtXtXtXtXtXtXtXtXuXuXtXtXtXtXtX",
"yXtXiXtXyXtXtXiXuXtXiXtXiXuXtXtXiXiXh.> O.8.K.P.K.L.G.F.D.D.D.D.F.F.F.F.L.L.K.P.J.8.O.> #.tXiXtXtXiXiXtXyXtXtXiXtXyXuXtXuXuXtXtX",
"iXiXtXiXtXiXtXtXiXiXuXuXtXiXuXuXtXyXgX6Xr.q { O.3.7.9.S.L.J.J.G.L.G.G.S.8.5.1.| } q h.6XgXiXtXtXiXiXtXiXtXiXtXtXiXtXiXtXuXiXtXiX",
"iXtXyXiXyXiXiXiXiXiXiXiXiXyXuXuXyXyXyXiXgXyX!.j.#.w 2 2 3 3 3 3 3 2 2 2 w t #.b.!.yXgXgXyXyXiXyXiXtXiXiXyXiXiXiXiXiXyXiXiXiXiXiX",
"iXiXiXiXiXiXyXiXiXiXiXiXiXiXiXiXiXiXiXyXgXiXgXgXgXiXaX6X<X~.6X6X6X6X7XaXiXgXgXgXgXiXyXiXyXiXiXiXiXiXiXiXiXiXyXiXiXiXiXyXiXiXiXiX",
"iXiXiXiXiXiXiXiXiXiXiXiXiXiXiXiXiXyXgXiXiXiXiXyXyXiXgXgXgXgXiXgXgXiXiXgXiXiXpXgXyXiXiXiXiXiXiXiXiXiXiXiXiXiXiXiXiXiXiXiXiXiXiXiX"
};
