/* XPM */
static char *result[] = {
/* columns rows colors chars-per-pixel */
"64 64 169 2 ",
"   c #0C0605",
".  c #130404",
"X  c #190606",
"o  c #1B0A05",
"O  c #2E0400",
"+  c #2C0D05",
"@  c #260F08",
"#  c #330500",
"$  c #330C04",
"%  c #3A0E05",
"&  c #310F08",
"*  c #251104",
"=  c #2E1107",
"-  c #2D140D",
";  c #2F190D",
":  c #351106",
">  c #3B1005",
",  c #34120A",
"<  c #3C130B",
"1  c #30180C",
"2  c #211D1B",
"3  c #281F1C",
"4  c #351711",
"5  c #3A1710",
"6  c #26201C",
"7  c #29211D",
"8  c #32211B",
"9  c #3F281B",
"0  c #2A2520",
"q  c #4F1B0E",
"w  c #541608",
"e  c #5E1C0E",
"r  c #5C1F11",
"t  c #631C0C",
"y  c #512A1D",
"u  c #5C2213",
"i  c #743616",
"p  c #4E2C24",
"a  c #543425",
"s  c #533629",
"d  c #8D3A0F",
"f  c #883D1B",
"g  c #AE3806",
"h  c #AF3708",
"j  c #AD380A",
"k  c #D93E00",
"l  c #E43D00",
"z  c #86411F",
"x  c #8D441D",
"c  c #AF440F",
"v  c #B0440F",
"b  c #A55A34",
"n  c #BD6035",
"m  c #CB440E",
"M  c #CC4C0D",
"N  c #D64101",
"B  c #DB4504",
"V  c #D74C04",
"C  c #DD4C03",
"Z  c #D24D0A",
"A  c #DC4C0A",
"S  c #D7500B",
"D  c #DB500C",
"F  c #CB4D13",
"G  c #C94E18",
"H  c #D64F10",
"J  c #D94D13",
"K  c #D45012",
"L  c #DE5E1B",
"P  c #E44500",
"I  c #EC4600",
"U  c #E54B03",
"Y  c #EB4C02",
"T  c #E44C0A",
"R  c #E84E0C",
"E  c #F14C02",
"W  c #E65100",
"Q  c #E95004",
"!  c #EB500C",
"~  c #E85011",
"^  c #E55A12",
"/  c #E95C13",
"(  c #E85E18",
")  c #E25A1B",
"_  c #E7601F",
"`  c #F16217",
"'  c #F06219",
"]  c #DC6425",
"[  c #D96920",
"{  c #DD6B28",
"}  c #DB6A31",
"|  c #D26A3C",
" . c #DE683A",
".. c #DC783E",
"X. c #DF742D",
"o. c #E16125",
"O. c #E86621",
"+. c #E56C25",
"@. c #EC6B23",
"#. c #E56C2D",
"$. c #ED6C2B",
"%. c #F36925",
"&. c #F46629",
"*. c #F66D2A",
"=. c #FA6C29",
"-. c #F26525",
";. c #EF702C",
":. c #E2792E",
">. c #E06D35",
",. c #EE6F31",
"<. c #E16C3A",
"1. c #E57235",
"2. c #E97335",
"3. c #E5753B",
"4. c #E17B40",
"5. c #EC823E",
"6. c #9C8D7C",
"7. c #BC9474",
"8. c #B2927E",
"9. c #BA927A",
"0. c #E78546",
"q. c #E98A45",
"w. c #F28E4F",
"e. c #C6986C",
"r. c #C69A74",
"t. c #CB9C75",
"y. c #CB9B7A",
"u. c #C29775",
"i. c #D29774",
"p. c #D19F73",
"a. c #CFA277",
"s. c #CAA07D",
"d. c #CAA87E",
"f. c #E5A67C",
"g. c #A89380",
"h. c #BDA785",
"j. c #BAA489",
"k. c #BEAC8E",
"l. c #B6AA8B",
"z. c #B5AC90",
"x. c #C4A687",
"c. c #CFA480",
"v. c #C5AA85",
"b. c #CBA881",
"n. c #C6A78A",
"m. c #CAA48D",
"M. c #C3AB8C",
"N. c #CBAB8B",
"B. c #D2A987",
"V. c #D0A98A",
"C. c #D4B18E",
"Z. c #DEB58C",
"A. c #DFBC8C",
"S. c #C3AC91",
"D. c #CAAE91",
"F. c #C6B093",
"G. c #CEB090",
"H. c #DCB391",
"J. c #CCB18D",
"K. c #EDBC86",
"L. c #EAB68B",
"P. c #EDBA8D",
"I. c #E1BA8E",
"U. c #F2B98A",
"Y. c #E3B691",
"T. c #E0A980",
"R. c #D7C09A",
"E. c #F4C79F",
"W. c #F6CBA3",
/* pixels */
"T.X.^ ^ ) q s.1.^ ^ ( ^ ( ^ L , c.:.^ / ) q s.2.^ ^ ( ^ / ^ L , c.X./ / ) q s.2.^ ^ ( ^ / ^ L < s.:.^ ^ ) q y.2.^ ^ _ ^ / ^ L , ",
"I.&.P E V + n.*.P Y I Y U Y B = N.=.l Y V : n.@.P Y U I U Y V : N.*.P E B + M.*.P Y U Y U Y V = M.=.P E V $ n.$.P Y I Y U Y A : ",
"I.} U Y T , M.$.I Y Y Y W I T 1 N.} U Q T , k.$.Y Y Y Y U Y T , N.} T W T , M.@.I U Y Y Y Y T : N.>.U Y T 1 M.$.I Y Y Y Q Y A , ",
"J.a h ~ M > N.*.P Y Y Y U C Z > j.a j ~ F % B.*.P Q I Y U C Z : j.a j ~ M > N.*.I Y Y E U B Z : j.a j ! M > N.=.P Y Y Y U B M & ",
"n 4 o < : z K.O.I Y Y I Y Y S > b 4 o , $ z E.O.I Y Y Y Y U S > b < o , $ z U.O.I Y W Y Y Y S > b 5 o , : z K.O.I Y Y I Y Y S > ",
"a.H.x.S.m.p v.%.P Q Y E U E V : 7.Y.h.S.m.y d.@.I Y Y E Y E V : 7.Y.k.F.m.p N.@.P Y I Y Y E V $ 7.I.h.F.m.p n.@.U Y Y E I Q V & ",
"R.0.@.%.#.1 M.$.I W Q Y Q Y D , F.q.@.%.#.= n.$.I U Y Y U Y T , F.q.O.@.#.; M.$.U U R Y Q Y A , F.q.@.%.#.; M.$.U U W Y Y Y J > ",
"C.[ N Y B = V.=.C V C Y Y E B & h.[ N Y V = m.=.C V C Y U E V , h.[ k Y B = B.=.P V U Y U E C & j.[ k Y B = V.=.P V U Y U E A & ",
"Z.+.U E T , m.#.I U W U R I H < N.+.U E T = m.#.I U W U U I A < b.+.U Y T = N.#.P U U Y R I K < b.+.I E T = m.#.I U W Y R Y A < ",
"} Y Y Q V + 2 1 c ~ Y Y Y R e 8...Y I Y V + 2 1 c R R E Y T e 8...Q E Y C + 2 ; c ~ U E E R e 8...Y Y Q A + 2 1 c ~ U E Y T t g.",
"^ I Y U C > 6.M.9 % m A T F - b.@.I Q Y T % 6.M.9 % m S T F - N.@.I Y U C : 6.J.p % m A T F - b.@.P Y U V % 6.M.9 % m S T G , v.",
"T Y U E A , C.w.e.S.y + , = 9.3.U Y Y E A : C.w.e.S.y + , , 9.3.U Q I E T : C.w.7.S.y @ , & 9.3.U E I E A , C.w.e.M.y + : - 9.4.",
"E U W E J - N._ ' 2.t.v.n.7 N.@.I W Q Y J 1 N.O.' 1.p.M.v.7 N.@.I Y Q Y J , m._ ` 1.p.v.v.7 D.@.I Y Y Y J , N.O.' 2.t.v.x.6 N.#.",
"S T T J w   c.#.N B ] 1.| 1 h.,.B D T A w   c.+.k A ] 1.| 1 h.,.B D A A w   d.#.k B ] 1.| 1 h.$.V D T D w   c.#.N B ] 1.| ; h.;.",
"& , , - . d ] e @ < $ $ # x P.a O , & , . d ] u @ > $ $ # x P.a O , , , . d ] u @ : $ $ # x P.a O < , , . d ] e @ < & $ # x L.s ",
"f e.N.N.d.o.A t.k.N.N.B.m.U.W.3 i y.N.N.b.o.B t.k.N.N.m.x.U.W.8 i a.N.M.N.o.B t.k.m.N.N.v.U.W.8 i t.N.M.b.o.V t.k.N.V.N.x.U.W.8 ",
"f.5.&.$.#.t i.5.@.$.;.$.$.O.] < y.5.-.@.#.e i.0.@.$.$.$.$.O.] < y.5.%.@.#.r i.5.@.@.*.$.$.O.] < y.5.%.@.#.t i.5.@.$.;.@.*.+.[ 1 ",
"A.-.l Y B * k.&.l U P I U I B : N.%.l E B * M.&.l U P I U I B : N.%.l I B * k.%.l U P Y P Y B : N.%.l Y B * k.&.l I U I P I B & ",
"Y. .U E T < M.#.I Y Y Y Q I T 1 N.<.U Q T < N.+.I Y E Y Q I T , N.<.U Q T < M.;.I Y Y Y Q Y T , N.<.U Q T < S.+.I Y Y Y W Y J & ",
"J.a h R M > B.=.I Q Y Q U V M > j.a g ! M < B.*.I W Y Q T C M : j.a g R M > V.*.P Y U Y U C Z : j.a g ! F > B.*.P Q U Y U B Z & ",
"n 4 o < : z K.O.I Y Y I Y Y S % b 5 o , $ z K.O.I I Q Y Q Y S > b 5 o < $ z K.O.Y Y Y Y R I S > b 5 o : > z K.O.I Y Y Y Y U A , ",
"a.H.x.S.N.p x.@.P Q Y Y Y E V & 7.I.h.S.m.p v.%.U Y I Y U E C : 7.Y.h.F.m.p v.%.P R I E Y Y S : 7.Y.k.M.m.p v.%.U Q I E Y Q A $ ",
"H.q.@.@.#.4 M.$.I U Q Y Y Y A : F.q.O.%.>.; M.$.U U Q Y Y Y D , F.q.+.@.#.; M.$.U W Q Y Y Y A , F.q.@.%.#.; M.$.I W Q Y Y Y A , ",
"J.] k I B = V.=.C V U Y U E C & h.[ k E B = V.=.P V U Y U E B & h.[ k E B : m.*.P V U Y Y E C & h.[ k Y B = N.=.B V C Y I E A & ",
"A.{ U Y T = N.#.P U W R R Y H < b.+.U E T = m.+.I U W U R Y H % b.+.I E T , n.#.I U W R Y I H < b.+.I E T = m.#.I U W Y R I A < ",
"} T E Q V + 2 ; c R P E E R e 8...Q E Y A + 2 ; c ~ T E E R e 8...Q E Q V + 2 ; c R U E Y T t g...Y Y Q V + 2 1 c ! U E Y R t g.",
"/ I Y U T > 6.N.9 % m A T F - N.%.P Y U C : 6.N.p % m A T F - b.@.P Q U C % 6.M.9 % m S T F ; b.@.P Y U A > 6.N.9 % m S T G 1 v.",
"U Q U E A < V.w.e.S.y + : = 9.3.U Y Y E T : C.w.e.k.y + , & 9.3.U Y I E T , V.w.e.S.y + < = 9.3.U Y I E A , V.w.e.S.y + : - 9.4.",
"E W W E J , N.O.' 1.p.v.v.7 N.@.I W Y Y J ; N._ ' } p.v.n.6 D.@.I Y Y Y J - N.O.' 1.t.v.x.3 N.@.I W Y Y J - N.O.' 1.t.v.x.2 N.@.",
"A T T J w   s.#.k A ] 1.| 1 h.$.B D T A w   d.#.k A ] 1.| 1 h.$.V D T A w   b.#.k B ] 1.| 1 h.,.V T T D w   c.#.k U ] 1.| ; x.2.",
"& , & = . d ] r @ < + # # x P.a O < 1 = . d ] u @ , $ # # x P.a # , & , . d ] r @ < $ $ $ x P.a O < , , . d ] e @ , $ $ # x L.a ",
"z r.N.N.b.] A t.k.m.N.N.n.U.W.8 i t.N.N.m.o.B t.k.N.N.N.v.U.W.8 i y.N.N.b.o.A t.M.N.N.m.x.U.W.8 i y.N.M.b.o.A t.k.N.N.N.N.U.E.7 ",
"f.5.&.@.#.r i.5.@.#.*.@.$.O.[ < y.5.%.@.#.r i.5.@.$.;.@.$.O.[ < y.5.&.$.#.t i.0.@.$.;.$.$.O.] < y.5.%.%.#.e i.5.@.$.;.$.$._ [ 1 ",
"A.-.l Y B * k.%.l I P Y P Y B : N.%.l I B * M.&.l Y P I P I A : N.=.l Y N * M.&.l U P I U I B : J.%.l Y N * S.&.l I P I U I B , ",
"Y. .U Y T < M.$.I Y Q Y Q Y T , N.<.U Q T < M.#.I Y Y Y Y Y T : N.<.U Y T , M.;.I Y Y Y Q I T , N.>.U Q T < S.+.I Y Q Y W Y J , ",
"G.a h ! M % B.*.P Q Y Y T B M > j.a g ! M > B.*.P Q Y Y T V M : j.a g Q M > B.%.I Q Y Y U V M : j.a g ! F > B.*.U Y Y Y U B M , ",
"n 4 o , & z U.O.I Y Y Y R I S > b 5 o < % z K.O.I Y Y I R I S > b 5 o < > z K.O.I Y Y Y Y Y S > b 5 o , > z K.O.I Y Y Y Y U V < ",
"a.H.x.S.m.p v.%.U Y I E Y E S : 7.Y.h.F.m.p n.@.P Q Y E Y E S > 7.Y.j.S.N.p v.$.P Q Y Y U E S : 7.Y.h.F.m.p v.%.U Y Y Y Y Q A & ",
"H.0.@.%.#.; M.$.U W Q Y Y Y A , F.q.+.@.#.; M.$.U W Q Y Y Y A , F.q.@.@.#.; M.$.I U Y Y Q Y T , F.q.O.%.#.; M.$.I U Q Y Y Y A , ",
"J.] k Y B = B.=.B V U Y U E C & h.[ k E B = B.=.B V U Y U E C & h.[ k Y N & V.=.C C C Q I E B & h.[ N E B = N.=.C V U Y U E B & ",
"A.X.U E T , n.#.I U W U R Y Z < b.+.I E T , n.#.I U W I T Y H < b.+.U E T , n.#.I U W U R Y H % b.+.I E T 1 m.>.I U U Y R Y A < ",
"} Q Y E V + 2 ; c ~ U E Y U e 8...Y E Q V + 2 ; v T R E Y Y e 8...Q I Y V + 2 1 c ~ P E Y R e 8...Y Y Y V $ 2 1 c ! U E Y R t 6.",
"^ I W U T $ 6.M.p # m S R F - N.@.P Q U C % 6.M.9 % m S T F - b.%.P Q Y C % 6.M.9 % m J T F - b.@.P Q U C % 6.M.9 % m S ~ G , v.",
"T Y U E C < V.w.e.S.y + , : 9.3.U Q I E T , V.w.e.S.y + , 1 9.3.U Q I E A < C.w.e.S.y + , & 9.3.U Y I E A : V.w.e.S.y + , = 9.4.",
"E Y W Y J 1 N.O.' 1.p.v.x.3 D.@.I Y Y Y J - N.O.' <.p.v.x.2 D.@.I W Y Y J ; N.O.' 1.p.v.n.7 D.@.Y Y Q E J & N.O.' 2.p.M.v.6 N.@.",
"A T T J w   b.#.k A ] <.| 1 h.,.B D T A w   b.#.k A o.1.| 1 x.#.B D U J w   c.+.k A ] <.| 1 h.$.B D T A w   c.#.B B ] 1.| ; x.2.",
"= , , = . d ] r @ & $ $ # x P.a O , & , . d ] r @ , $ $ # x P.a # , , = . d ] u @ < + $ # x P.a O < , - . d ] e * , & # # x L.a ",
"f r.V.m.d.o.A t.M.b.N.N.N.U.W.8 i y.N.N.b.o.A t.M.b.N.N.N.U.W.8 i t.N.J.m.o.B t.k.b.N.V.v.U.W.8 i t.N.M.b.] A t.M.N.V.N.x.U.W.7 ",
"f.5.%.$.+.r i.0.@.$.;.$.*.O.] < t.5.-.%.#.t i.0.@.@.*.$.$.O.] < y.5.%.@.#.r i.0.@.$.;.@.$.O.] < y.5.%.@.#.t i.0.O.%.;.$.$._ [ 1 ",
"I.-.l I B * M.&.l I P I C I B : J.%.l Y B * M.%.l Y P I U I B , N.%.l Y B * M.&.l Y P I P I A : N.%.l Y N * k.*.l I P I U I B , ",
"Y.<.U Q T < M.+.I Y Y Y W Y D , N.<.U Q T , M.#.I Y Y Y Q Y T , N.<.U Y T < N.+.I Y Y Y Y Y T , D.1.U E T < S.+.I Y Q Y Y Y J , ",
"N.a h ! F > B.*.P Q Y Y U B Z < j.a g ! F > B.*.P Q Y Y U B Z > j.a g R M % B.*.P Q Y Y T V Z : j.a j Q F > B.*.U Y Y Y U C M & ",
"n 4 o < : z K.O.I Y Q I Y U S > b 5 o , > z K.O.I Y Q I Q Y S > b 5 o < % z K.O.I Y Y I Y Y S > b 5 o : > z K.O.I Y Y Y Y U A : ",
"a.H.h.D.m.p m.@.I Y Y Y Y E C & 7.Y.h.S.N.p N.@.P Q I Y U E V & 7.Y.h.F.m.p v.@.P Q Y Y U E V , 7.Y.k.M.m.p v.%.I Q I E U Q A : ",
"R.q.O.%.#.; M.$.U U U Y Y Y D , F.q.O.@.#.- n.$.I U Q Y Y Y D , F.q.O.@.#.; M.$.U Q Q Y Q Y D , D.q.@.%.#.; M.$.U U W Y Y Y A , ",
"C.] N Y B = V.=.U V U Y Y E V , x.[ N Y B = m.*.U V C Y U E C , v.[ N Y B & N.*.P V U Y Y E B & j.[ N Y B = N.=.P V U Q U E B & ",
"I.{ U E A , m.#.U U U U R Y H < d.+.U E T = m.#.I Y W Y R Y F q b.+.I E T = n.>.I U W Y R Y Z < b.+.I E A , m.#.I U W U R Y A < ",
"} Q Y Y V + 2 1 v R Y E Y R e 8...Y I Y V = 2 1 c ~ U E I P e g.4.U Y Y V & 2 1 v R U E Y T e 8...Y Y Q V + 2 1 c ~ Y E E T t 6.",
"! I Y U W & 6.M.9 % m S T F = b.%.U Q Y T > 6.M.9 % m Z R F ; b.@.P Q W C > 6.n.9 % m S R F - N.@.P Q U T > 6.M.9 % m S T G < M.",
"T W U E T , C.w.e.M.y + , = 9.3.U Q I E A : C.w.e.S.y + , : 9.3.U Y I E T , V.w.e.M.y = : : 9.3.U Y I E A : C.w.e.k.y + 1 - 7.3.",
"E Q Q E J - n.O.` 1.p.M.m.7 N.@.I Y W Y J - N.O.' <.p.b.v.7 N.@.Y Y Y Y J - M.O.' 1.p.M.n.3 D.@.I Y Q E J - n.O.` 1.p.M.x.2 N.@.",
"V T T S w   d.#.k A ] 1.| ; h.,.B S A A w   d.#.k Z ] 1.| 1 h.,.B S A A w . d.;.k A ] } | 1 h.$.V S C A w   d.#.k A ] 1.| ; x.2.",
"& < , , X d o.u @ < $ % : x P.a # < , , X d o.u - < $ % $ x K.a # < , 4 . d ] u - < $ % $ x P.a # < , 5 X d o.u @ < $ % > x L.a ",
"f u.D.S.v._ U r.z.S.D.D.l.P.W.3 i y.D.k.x.O.U u.z.S.D.D.z.P.W.7 i y.D.S.v._ U r.z.M.D.D.l.P.W.7 i y.D.S.v._ U r.z.S.S.D.l.P.W.7 "
};
