/* XPM */
static char *result[] = {
/* columns rows colors chars-per-pixel */
"64 64 256 2 ",
"   c #121008",
".  c #312D2C",
"X  c #362018",
"o  c #4D3637",
"O  c #732A2D",
"+  c #36403B",
"@  c #574638",
"#  c #745232",
"$  c #7E6B3C",
"%  c #4B4644",
"&  c #574E4B",
"*  c #675B58",
"=  c #7A5858",
"-  c #6E4A47",
";  c #766957",
":  c #676662",
">  c #7A7368",
",  c #7B7572",
"<  c #766968",
"1  c #B70E1B",
"2  c #AD1328",
"3  c #A32A33",
"4  c #CD0A1B",
"5  c #C7192A",
"6  c #D90F22",
"7  c #FA0D24",
"8  c #F9132B",
"9  c #885637",
"0  c #AD7635",
"q  c #937035",
"w  c #A43443",
"e  c #9A3642",
"r  c #C23547",
"t  c #92544D",
"y  c #AF5056",
"u  c #916B53",
"i  c #AB7757",
"p  c #945E69",
"a  c #857769",
"s  c #966B76",
"d  c #857976",
"f  c #957678",
"g  c #8F6C6A",
"h  c #A47171",
"j  c #C06370",
"k  c #B9892A",
"l  c #D29719",
"z  c #E9B419",
"x  c #F6BB16",
"c  c #F1B40C",
"v  c #C68926",
"b  c #C99C36",
"n  c #CF972A",
"m  c #D6A429",
"M  c #DAA937",
"N  c #CFA936",
"B  c #E6BE32",
"V  c #E6B222",
"C  c #FEC305",
"Z  c #FCC40C",
"A  c #FFCA09",
"S  c #FBC413",
"D  c #FDCC1B",
"F  c #F8C718",
"G  c #FED11A",
"H  c #FCCB23",
"J  c #F7C929",
"K  c #FAD22B",
"L  c #F7CB37",
"P  c #F9D337",
"I  c #EDC633",
"U  c #968A57",
"Y  c #968A4F",
"T  c #B39453",
"R  c #B7A956",
"E  c #8A837A",
"W  c #978879",
"Q  c #9D8F6C",
"!  c #B48766",
"~  c #A69A78",
"^  c #AE916D",
"/  c #B7A872",
"(  c #C49746",
")  c #C59758",
"_  c #CAAB5B",
"`  c #D0B34D",
"'  c #C8976B",
"]  c #CA976D",
"[  c #C8A877",
"{  c #D7A678",
"}  c #C9BB76",
"|  c #CDAD6C",
" . c #FABE7C",
".. c #F5BB7B",
"X. c #E7AE77",
"o. c #E1BC46",
"O. c #DDC94F",
"+. c #F6D748",
"@. c #F4CF5A",
"#. c #EBDC57",
"$. c #F5D655",
"%. c #EDC84C",
"&. c #EDE25C",
"*. c #F7E75B",
"=. c #D9C669",
"-. c #D2C976",
";. c #E8DC69",
":. c #F7D765",
">. c #F7C37C",
",. c #E9DA76",
"<. c #F6D877",
"1. c #E8C971",
"2. c #EDE169",
"3. c #F5E36A",
"4. c #FAEB6C",
"5. c #F7E967",
"6. c #EDE278",
"7. c #FBEB73",
"8. c #F6E777",
"9. c #FEF476",
"0. c #A77C86",
"q. c #B77D8C",
"w. c #987C81",
"e. c #978A85",
"r. c #9C938B",
"t. c #9A9387",
"y. c #92938D",
"u. c #A8878A",
"i. c #A5978B",
"p. c #B69A87",
"a. c #B78B96",
"s. c #A59C92",
"d. c #A79A96",
"f. c #B59797",
"g. c #AF8991",
"h. c #B7A687",
"j. c #ABA298",
"k. c #B3AA9C",
"l. c #B6A798",
"z. c #B8B08F",
"x. c #B5ABA3",
"c. c #BAAAA3",
"v. c #BBB1A5",
"b. c #BCB3AA",
"n. c #B8B7AA",
"m. c #B9B3AC",
"M. c #C8929D",
"N. c #C6A988",
"B. c #C6B888",
"V. c #C5AA97",
"C. c #C6B799",
"Z. c #D8B485",
"A. c #E8B789",
"S. c #F5BE84",
"D. c #ECBF92",
"F. c #CA99A5",
"G. c #D79BAA",
"H. c #D18FA1",
"J. c #C5A8A9",
"K. c #C2B6AB",
"L. c #C4BAAE",
"P. c #C7B9A7",
"I. c #C5BBB2",
"U. c #CABDB4",
"Y. c #C4B7B3",
"T. c #DAABB5",
"R. c #E8AAB9",
"E. c #F0ACBD",
"W. c #E5B3BD",
"Q. c #F2B1BF",
"!. c #E0BEAA",
"~. c #E09EB3",
"^. c #D5CA94",
"/. c #D9CF8F",
"(. c #E6C487",
"). c #FCC383",
"_. c #FBC38B",
"`. c #F9C58A",
"'. c #F6D986",
"]. c #FBCA95",
"[. c #F8D998",
"{. c #E8D292",
"}. c #ECE286",
"|. c #F5E886",
" X c #FDF383",
".X c #EDE297",
"XX c #F6E799",
"oX c #FEF997",
"OX c #D9C9A8",
"+X c #CCC1B4",
"@X c #CCC3B9",
"#X c #D5C5B6",
"$X c #D5C6B9",
"%X c #D6CABB",
"&X c #DACABC",
"*X c #D9C9B7",
"=X c #DCD1BC",
"-X c #D5CBAA",
";X c #E5D5A9",
":X c #F6DAA8",
">X c #E7D8B8",
",X c #F4DDB7",
"<X c #EDC7AF",
"1X c #EDE1A5",
"2X c #F9E8A9",
"3X c #F6E7B8",
"4X c #F6EBB4",
"5X c #ECBAC2",
"6X c #EAB7C2",
"7X c #F3B5C3",
"8X c #F3BAC5",
"9X c #FDBBCC",
"0X c #F8B7C8",
"qX c #F7B2CA",
"wX c #DEAEC2",
"eX c #D5CBC2",
"rX c #DBCEC2",
"tX c #D9C7C3",
"yX c #DDD1C4",
"uX c #DED4C9",
"iX c #DAD6CC",
"pX c #D3CBC5",
"aX c #E8CAC5",
"sX c #F7C3CB",
"dX c #E2D3C5",
"fX c #E3D5CA",
"gX c #E6D9CC",
"hX c #EADCCE",
"jX c #EAD7C7",
"kX c #F3DEC7",
"lX c #FEC8D6",
"zX c #E6DAD1",
"xX c #EBDDD2",
"cX c #E3D7D1",
"vX c #F3DCD3",
"bX c #DBE8DD",
"nX c #EDE1CC",
"mX c #EDE4C1",
"MX c #F4E2C4",
"NX c #F4E2CB",
"BX c #F9E9C7",
"VX c #EEE1D4",
"CX c #EDE3D9",
"ZX c #F2E3D5",
"AX c #F3E5DA",
"SX c #F5EADD",
"DX c #FAEBDD",
"FX c #F8E8D6",
"GX c #FCF1C9",
"HX c #F6ECE0",
"JX c #FAEDE2",
"KX c #F6E8E5",
"LX c #FCF2E4",
"PX c #FEF4EA",
"IX c #FAF5E5",
"UX c #F7F6EC",
/* pixels */
"SXSXSXHXSXHXHXHXHXHXHXHXHXHXHXHXHXHXHXHXIXSXHXUXIXHXIXHXIXJXJXHXIXLXHXLXHXJXJXJXJXLXJXLXJXKXJXJXJXJXJXJXJXJXJXSXHXHXJXJXJXJXJXDX",
"HXSXSXHXHXHXHXSXHXHXHXHXHXHXHXHXHXHXHXHXSXLXHXC.;XDXHXLXJXJXJXLXLXHXHXLXHXJXLXJXJXLXJXJXJXJXKXKXJXJXJXJXJXJXDXJXHXLXJXJXJXJXJXJX",
"SXCXHXSXSXSXSXSXHXHXSXHXHXHXCXHXSXHXHXHXHXIXl.-.,.1XDXSXJXJXLXIXIXLXJXHXKXJXKXJXJXHXHXJXJXJXJXHXJXDXHXHXJXJXJXJXHXHXJXDXDXKXJXDX",
"SXSXSXSXSXSXKXSXHXHXHXHXHXHXHXHXHXHXJXSXIX%Xz.oX,.^.LXHXHXLXZXP.=XDXHXHXLXJXJXLXKXIXJXHXJXJXLXJXJXJXSXHXHXDXSXHXSXHXSXJXDXJXDXJX",
"SXSXSXAXSXAXHXHXSXSXSXSXHXCXHXHXSXHXHXSXUXpX>XoX} +XIXDXDXLXh.-..X=XHXHXKXKXJXJXJXJXJXIXHXIXHXHXHXJXLXPXHXHXHXHXSXHXKXJXJXDXDXJX",
"SXSXSXSXSXSXAXHXSXHXSXHXHXHXHXHXSXHXIXSXHXIXeX-.^ CXLXDXJXcX}  X X^.SXHXJXLXJXJXJXHXJXJXLXHXJXIXIXCX%XI.LXHXSXHXLXJXSXHXDXKXAXJX",
"CXAXSXAXAXAXSXSXSXCXSXSXHXHXSXHXLXCXgXLXSXIXeXa iXLXDXDXLXeX-.9. Xz.CXJXHXKXKXLXJXIXLXLXDXDXIXFX@X@Xs.+XPXJXSXCXgXzXHXHXJXDXKXDX",
"CXAXAXAXSXSXAXAXSXSXSXHXCXHXHXCXPXj.v.PXSXCXn.n.iXLXFXFXDXVX/.2.6.h.JXJXHXJXHXJXUXmX*XZXJXIXyXv.;X=X+XPXVXyX&XuXyXeXgXHXAXJXAXKX",
"AXAXAXZXAXAXSXAXCXSXSXAXSXSXSXJXZXj.I.JXLXeXt.pXK.LXSXFXLXSXi.U Q uXIXJXSXHXSXIXyX/ .X=XIX+X^.4XXXB.SXyX$XdXAXSXJXSXrXKXJXJXKXDX",
"CXZXAXCXZXZXAXAXCXAXAXAXSXCXSXLXP.P.n.AXIXv.z.iX%XyXDXSX%Xt.=XuXv.IXSXJXJXHXSXPXh.,.oX/.k.=XoX3.=.+XeXuXDXLXDXFXSXHXyXxXJXAXDXAX",
"ZXAXZXAXCXZXZXCXAXAXCXAXSXAXZXLXl.} OXeXPX~ 1X=XLXeX+Xc.v.hXAXLX+XfXJXSXHXHXSXHXz.oX XQ /.oX5.#.R U.BXGXFXDXSXDX1XBXgXfXJXSXAXJX",
"AXxXAXVXAXZXZXAXZXSXSXZXAXSXZXJXV.B 5.>Xn.a ~ t.-X>X=XrX+XK.+XzXSX+XfXLXJXJXLXPXn.z.=.R 9.4.*.O._ XX|.4XDXFXDXBXO.:XxXyXKXAXAXAX",
"xXZXVXZXZXVXZXZXZXZXZXFXZXZXDXLXp.0 H '.GXt.: n.U =.-.L.+XCXnX%XDXFX%X@XuXrXeXL.n.W R 9.2.5.+.5. X4.3.3XSXSXSXBXo.[.AXrXJXAXAXAX",
"VXZXVXVXVXZXVXZXZXZXZXZXZXLX#XT N m H J GXE s.IXU 4.4.GXIXHXSX=X=XZXLXVXuXdXuXnXIX~ 2.9.4.5.&.4.7.8..XGXSXFXFXnXo.<.SX%XAXAXAXSX",
"VXxXxXVXVXZXZXZXAXVXZXZXSXV.b F K H J L 4X> n.iXY 5.5.^.> y.nX4X;./.;XVXSXSXZXCXi.Y 5.5.4.5.9.9.8.XXGXZXSXZXLXOXB $.>X#XvXAXAXAX",
"ZXnXnXvXVXZXVXZXVXZXVXDXp.b P F x :.2X4XIX@XE ~ O.5. X; e.n.h.8.5.&.}.b.e.b.%X;X/ =.9.&.4.8.8..X4XFXSXFXSXFXKXB.L L ;XpXzXDXAXAX",
"hXNXnXhXNXxXVXVXZXVXDXV.k K <.'.[.NXFXAXAXJXtX} 3.9./ * UX@XR 4.2.5.=.z.HXz.XX}.U 6.4.4.7.8.XX3XSXCXSXSXZXLXeX1.L L OXtXfXSXZXAX",
"vXxXvXZXxXVXVXZXVXZXfXT K :.MXSXFXAXAXBXBXNXJXjX} .X+XE -X> -.5.&.9.T jXIXW 2X-.-.9.8.8.|.XX3XSXKXSXFXCXHXgX+X<.J J {.yXfXSXAXZX",
"hXhXhXhXxXnXvXnXhXFXl.` <.MXZXZXAXFX2X|.8.XXSXDXZX+X$XW ; yXoX5.5.9.z.bXt.t.+XC.}.XX|.8.|.2XFXAXSXAXCXHXVXv.MX$.D J ^.pXrXSXxXAX",
"hXNXvXnXNXhXvXxXVXhXi.,XNXxXZXBX3X2X8.5.*.:.[.kXxXSXxXU.+X+X/ O.` -.z.> E n.&XFX| =XGX|.1XBXAXAXAXAXHXnXx.vX:XJ F I :XU.$XSXvXAX",
"hXxXvXhXxXvXhXxXAXeXd.DXzXmXmXmXXX8.5.5.+.H :.l.$XSXZXSXFXhXyXOX-X%X=XVXJXDXSXNX,.| SX3XMXAXZXAXHXHXaXv.xXFX<.S F B >X#XuXAXvXAX",
"hXhXhXxXxXxXxXhXAX+Xv.SXnX1X.X3X4X8.*.K D P {.W ;XNXZXZXVXZXFXFXFXSXFXCXAXFXvXNX8.N OXFXZXAXAXFXjXY.K.AXDX:XL S D ` CXI.gXAXCXVX",
"hXhXhXhXhXhXvXgXAXK.K.SXjX}.2..X3X4X<.L K 1.V.Q }.>XAXCXAXvXxXZXVXVXCXVXZXjXZXMX3.I _ FXFXZXZXFX+X&XJXKXNX:.F D z [ JXK.xXvXxXAX",
"hXhXhXhXhXxXnXhXAXb.v.FX,X2.&.2.6..X:X:X[.] D.~ X.h.KXNX[..XNXvXNX1X4XVXkX(.^.SX.XP n <XFXvXZXZXDXSXAXNX'.H S D b >XZXb.AXxXCXxX",
"hXhXgXxXhXnXgXhXZX+Xj.SX>X2.&.&.&.L L :.[ Z.].p.=.u CXMX@.P |.3XMX}.6.3XkX:.` =X3X+.B { FXZXAXZXAXAXNX'.L F H V _ GXeXK.DXxXxXCX",
"hXgXhXgXhXgXgXhXnXyXs.AX1X2.&.2.+.J H m ' ].D.^ %.$ +XAX'.J P ;.2X1X#.3.kX'.J [ FX<.@._ NXAXZXCXZX,X<.L F D x k <.4XK.$XAXxXxXxX",
"fXgXgXgXgXhXhXhXgXCXs.yX3X;.#.#.P m 0 9 ! S.].! b ^ k.&XFX@.F P 3.XX,.#.6.[.J ( dX<.H %.kXZXZXZX[.:.+.J H K R ,.|..Xk.xXvXxXxXvX",
"fXfXgXgXgXgXgXhXjXvXU.k.mX#.#.+.J M ( / _.A.:X[ / [ :Xh.>X3X+.K K #.#.&.2.'.$.1.D.@.F %.,XAXNX'.:.@.+.+.%.T /.|.XX^.U.DXxXxXxXCX",
"fXfXfXjXgXgXgXgXhXfXVXk.#X}.#.+.H K # X ^ '._.`.^ ] ].A.u g / m S S K $.8.<.@.B ( L J @.NXZXkX2X:X2X4X;X~ /. X8.1Xj.zXAXAXvXVXxX",
"fXjXgXfXgXgXgXfXfXjXgXnXj.;X2.P G b . : X A.>.].N.] _.{ A.h.r.C.1.L F D J J Z S ( <.@.[.vXvXSXSXSXiXk.h.}.|.}.2XC.@XNXOXP.C.@XvX",
"fXjXjXfXjXfXgXfXfXjXgXnXdXk./.:.P q , e.% Q `.>._._._.D.= o . * P.;X<.L S C x S R aXMXVXCXhXyX+Xk.k./. X|.6.oXC.W N.( b O._ +XAX",
"fXfXgXfXfXgXjXjXjXjXfXjXnXgXC.Z.(.a n.iXn.# `.>._.S.].@ @ +     @ V.z.OX>.+.L $.>XhXxXVXvXdX@X$X;XoX|.<.8..X1X_ M z x D o.N.VXzX",
"gXdXfXfXfXfXgXgXjXdXfXfXjXZXK.] u Y.gXd I.u ). .).].{ W n.  + y.o [ ' q | z.C.C.{.1XnXkXNXMX4XXX8.6.3.3.3.:.L H H S J =.V.CXxXxX",
"dXfXdXdXdXjXdXdXdXjXfXjXfXxXY./ ^ l.,X; o ' `. ._.`.S.DX: , bXbXa ! `.0 M A.gX;XO.#.6.}.6.6.2.2.5.3.$.P J F D F S +.} v.VXnXzXzX",
"dXdXfXfXfXfXdXjXjXdXjXjXfXjXSXt.u f :X{ u X.X. .S.).D.3XE E IXSXW ] _.9 m n | <XXX:.#.*.#.$.+.+.P J D S Z S S S L B.P.xXxXgXgXhX",
"fXfXdXdXdXdXdXdXdXjXdXjXhXvXr.U T ~ :X>.`.i { >. .S.`.{.I.& L.f ! `.{ = ( x z v ' %.K K H D Z Z Z Z Z Z Z x H %./ U.nXjXgXgXxXzX",
"=XfXyXdXuXfXfXdXdXfXfXuXyXk.$ &.2.Q -X`.).' X.S. .>.).S._.OX' { `.].] ] D.y l Z c c Z c C c C C Z z z x Z J ` h.&XZXhXzXhXxXzXxX",
"k.=X>XyX>XdXyXdXjX>XgXE W e.U #.R Q j.:XS._.{  .>. . . . .).).).).S.A.T ! 0 m v l l c x Z x c m k b B D V | K.fXvXjXgXhXhXgXgXzX",
"k.*XuXuXdXdXyXdXjX=XjXk.l.DX=X~ W zXv.h.].S.i i  . . .>. . .>.`.`.u @ Y u x C x V n v v v v k M L I M R B.dXxXgXfXjXgXzXxXgXhXxX",
"s.yXdXuXyXdXdXdXyXfXuXVXs.k.VXiXhXfXVXJ.! S.S.)  ... . .>.).).{ g b.U *._ l A c A A A S S x F M T [ C.dXxXxXcXgXgXxXzXzXzXgXzXcX",
"U.dXdXdXrXrXdXdXyXdXdXdXnXj.x.nXgXuXfXVXP.i ' A.S._.).S...] i = >XiXR *.( v C c x c c l n ( / V.&XxXxXgXhXfXzXhXgXgXzXcXzXzXzXjX",
"dXrXrXdXdXdX>XdXdXdXfXyXgXCXr.W yXVXfXuXVXdXp.! i # 9 9 t ] ! t.SXpXU O.Y ^ ( ( ( ) [ N.#XgXxXhXcXfXfXgXfXfXfXfXgXgXzXfXjXzXvXcX",
"rXdXrXdXaX&XrXdXdXaXdXgX%Xe.x.+Xi.k.yXhXuXgXvXxX&X- 9 { ..:Xt u.ZXgX> ; P.vXdXjXjXkXjXVXhXjXfXfXfXfXjXdXfXfXfXzXzXfXzXzXzXzXcXfX",
"rXrXrXyXdXdXdXdXdX=XdX&XE I.nXfXaXF.u.F.dXvXhXzXhXjXp.] S.S.u d.SXj.k.s.>XfXfXfXdXdXdXfXfXfXfXfXjXfXfXaXhXfXfXzXfXfXzXhXhXfXzXfX",
"&XrXdXtX&X=XdXdXdX&XhXr.P.vX&XW.5X9X7XF.u.d.c.#XzXvXAXV.! { OXf.uXd T.6Xr.cXgXfXdXfXgXgXuXfXuXdXfXfXfXdXfXfXfXfXfXfXfXzXaXcXhXfX",
"=XdX&XdXyXdXaX&XyXgXI.r.jX&X8X5X8X7X7XsX8X~.F.e.< w.c.aX&Xp.f.E j.k.F.lXc.k.zXdXdXfXdXfXgXuXuXfXfXfXfXfXfXfXfXfXzXzXfXfXzXzXuXaX",
"=XrXdXrX&XdXrX=X=XyXe.%XaX6X5X8X5X8X8X7X8X0XlX6Xo M.G.g o p g * y.d.F.9X5XW dXfXfXfXfXuXuXfXuXdXfXfXfXfXaXgXfXfXfXfXfXfXcXiXe.x.",
"&X&X&X&XrXrXdX&XfXb.t.jXaX6X7X5X7X7X7X8X8X5X7X5Xg F.lXW.e 6 2 h eX: F.9X9Xd.I.hXdXdXdXfXuXuXdXfXaXfXfXfXfXfXfXfXfXfXfXuXgXk.j.b.",
"&X*X%X&XrXrXtX&XfXj.m.jX6X7XE.7XQ.8XQ.8X8X8X5XsXG.s 9X8Xy 7 w d.r.d F.9X0Xc.v.jXdXdXdXdXrXfXuXfXuXfXuXuXfXfXuXuXuXuXuXuXgXs.t.iX",
"*X%X&X%X&X&X&X&XjXs.b.aX6X7XE.E.Q.8X8XQ.Q.8X8X8XaXs E.9Xy 4 f u.vX: a.9X0Xc.k.hX&XrXaXdXfXrXfXdXuXyXfXxXgXfXfXuXuXuXuXuXfXuXiXgX",
"%X%X%X%X&X&X&X&XdXk.j.aXqX~.E.Q.Q.Q.Q.Q.7X8X8X8XsXu.G.9Xr 4 e., : . u.p lXe.K.gXdXdXdXdXfXrXuXdXuXuXrXk.Y.cXuXuXuXuXuXuXuXuXuXyX",
"%X%X&X&X&X&XtX&X&X#Xt.sX0Xh a.0XQ.Q.0X7X9X8X0XQ.sXu.~.R.2 7 h :   . - H.J.f gXfXrX>XrXfXyXuXuXdXuXcXU.e.d uXfXfXfXuXfXfXfXfXiXVX",
"*X*X*X&X&X&X&XtX&XfXx.g.lX0.h qXQ.Q.7X0X6XqXqX8XsXs 8XH.5 7 5 - + . 0.f.e.fXdXrXuXdXyXyXyXuXuXdXuXyXfXd.v.gXfXyXfXuXfXuXuXgX+X> ",
"#X*X*X$X$X&X&X&X&XeXiXs.f.J.h wXqX7XqXQ.qX9XW.8Xf.0.lXj 6 7 7 3 : o w.f.dXrXrXrXdX&X=XyXuXdXrXyXrXdXdXgXgXdXyXfXuXfXyXuXuXgXL.r.",
"$X#X$X#X$X&X&X&X&X&X&XfXx., w.~.qXE.7X7XqX6Xp w.s 6X6Xw 7 7 6 p s * e.U.zXgXrXdXtXrXrXuXuXyXyXyXyXyXdXuXyXyXyXuXyXyXyXfXyXiXgXzX",
"#X*X$X$X*X*X$X*X$X&X&XrXcXY.r.0.qX9XqX0XR.s % g 6XlXu.5 8 7 e W.9X6XT.0.e.K.fXxXhXhXhXdX&XyXeXyXrXyX&XuXyXuXuXyXdXdXyXyXyXyXyXyX",
"*X#X$X*X#X$X#X&X&X#X&X&X*XfXe.F.0.q.G.M.- s F.lXlXwXw 8 7 2 q.lXqXqXqX9XT.u.j.r.s.d.x.m.iXgXgXyXyXrXyXuXuXyXiXyXuX&XyXyXyXiXyXyX",
"#X#X#X#X*X#X$X$X*X*X&X&X&X&Xw.8XQ.F.M.< % f g s g.& 2 8 1 - s q.R.0X0XqX7XlXd.& s.d.d.w., r.x.eXrXuXrXuXyXiXeXyXyXyX=XiXyXyXyXyX",
"#X#X#X#X#X#X*X$X&X&X$X*XhXY., aXE.0X9XtX, J.b.j.y.: O O = wXqXF.a.g.H.E.9XW.d gXhXgXgXgXeXm.: %X&XrXyXrXyXyXiXyXyXyXyX=XyXyX=XdX",
"#X#X#X#X$X*X*X$X*X&X&XdXl.f., J.lX0X9Xc.j.xXuXfXhXhXcXd.. e.f.F.~.~.M.q.F.w.Y.xXeXrXrXeXhXW u.gX$XrXeXrXeXyXpXyX=XeXeXyX=XyX&XuX",
"#X#X#X#X#X$X$X$X$X&XyXt.f.sXa.. = F.6Xd rXyX&X&XtXrX@X. @ r.fXY.f.g.f.a.w.& e.fXfXyXrXzXj.! W rXtXtXeXrXyXeXyXyXiXeXeX=XyX=XyXyX",
"#X!.#X#X#X#X#X$X&XrXr.c.0XQ.9X~.h g < g.fXrXrXrXaXfXQ g i.= h eXCXxXeXU.Y.Y.f.e.Y.uXfX@Xu _.h Y.dX&XrXrXeXyXiXeX=X=XiXyXeXyXyXeX",
"#X#X#X#X#X#X$X$XtXe.F.5XR.7X7XqX9XlXa.J.dX&XdX&XgXp.! _.g p 4 2 p V.tXxXzXvXCXtX, eXjXW ' _.! d.fXtXrXrXyX%XyXyXyXiX=XeX=XyXyX=X",
"U.#X#X#X#X#X#X=Xe.f.0XR.E.7XE.E.R.7XG.e.fX&X&XfXK.h S...Z.# 4 7 4 1 3 p y p t t a xXc.= D...{ d dX%XrXrXyX%XeXpX%X=XpX=X%X%XyXeX"
};
