/* XPM */
static char *result[] = {
/* columns rows colors chars-per-pixel */
"64 64 256 2 ",
"   c #010101",
".  c #090608",
"X  c #180705",
"o  c #0A0A18",
"O  c #120C13",
"+  c #151218",
"@  c #19110E",
"#  c #380809",
"$  c #36170A",
"%  c #2A1614",
"&  c #32241B",
"*  c #091325",
"=  c #171727",
"-  c #0A1B38",
";  c #171B39",
":  c #060A25",
">  c #361624",
",  c #2A1A2E",
"<  c #19223B",
"1  c #2A2528",
"2  c #272739",
"3  c #3D393A",
"4  c #362D2E",
"5  c #461716",
"6  c #510F0D",
"7  c #790A0B",
"8  c #660C12",
"9  c #691618",
"0  c #741411",
"q  c #4A2916",
"w  c #562918",
"e  c #5B3318",
"r  c #4F2C12",
"t  c #6F2F17",
"y  c #4D1A2A",
"u  c #472D26",
"i  c #5A3726",
"p  c #4D382E",
"a  c #633A29",
"s  c #712E2E",
"d  c #7B1A34",
"f  c #7A451B",
"g  c #6F4116",
"h  c #524238",
"j  c #754A2D",
"k  c #794A2E",
"l  c #784728",
"z  c #694735",
"x  c #754B32",
"c  c #7A4C32",
"v  c #774835",
"b  c #795338",
"n  c #6A432C",
"m  c #5F6A2F",
"M  c #0B1C46",
"N  c #162347",
"B  c #1D2C55",
"V  c #0D2F52",
"C  c #242A48",
"Z  c #222B54",
"A  c #27355B",
"S  c #31304E",
"D  c #0A3969",
"F  c #083875",
"G  c #0D3568",
"H  c #283A68",
"J  c #2F3D6C",
"K  c #08475A",
"L  c #2A5556",
"P  c #0A4577",
"I  c #18456B",
"U  c #364777",
"Y  c #2F4372",
"T  c #236469",
"R  c #504F4E",
"E  c #785847",
"W  c #6D514B",
"Q  c #736955",
"!  c #465274",
"~  c #696969",
"^  c #777776",
"/  c #777165",
"(  c #675E57",
")  c #3B3E41",
"_  c #961516",
"`  c #8B1111",
"'  c #A81719",
"]  c #B81618",
"[  c #AF0A0F",
"{  c #8A2B17",
"}  c #952C15",
"|  c #983317",
" . c #893017",
".. c #A43719",
"X. c #AC261A",
"o. c #B91B21",
"O. c #8A322A",
"+. c #AA2C2B",
"@. c #921D22",
"#. c #C81518",
"$. c #D8181A",
"%. c #CD0B0F",
"&. c #EB1A1C",
"*. c #E81619",
"=. c #F31B1D",
"-. c #F5171C",
";. c #E90B0F",
":. c #CC2714",
">. c #DA1C24",
",. c #C11B22",
"<. c #E81A22",
"1. c #F71C22",
"2. c #CA2B2E",
"3. c #F62223",
"4. c #E82124",
"5. c #8D511C",
"6. c #A65E19",
"7. c #A85E0D",
"8. c #AA6319",
"9. c #B3691D",
"0. c #8C5223",
"q. c #815237",
"w. c #8B512B",
"e. c #B4502F",
"r. c #A86523",
"t. c #B46921",
"y. c #9E6226",
"u. c #C45932",
"i. c #DF6C35",
"p. c #8C5548",
"a. c #AC5651",
"s. c #856B56",
"d. c #906A54",
"f. c #8C5969",
"g. c #997B65",
"h. c #8D746A",
"j. c #B17262",
"k. c #D87250",
"l. c #D37566",
"z. c #D66364",
"x. c #BB3C46",
"c. c #778761",
"v. c #A8A322",
"b. c #FFF80D",
"n. c #E2DA23",
"m. c #998271",
"M. c #B8967A",
"N. c #AF8B70",
"B. c #CCA57C",
"V. c #D3836D",
"C. c #023B88",
"Z. c #084985",
"A. c #0A538C",
"S. c #075696",
"D. c #135797",
"F. c #39508F",
"G. c #075BA3",
"H. c #065DB8",
"J. c #0666AC",
"K. c #0167B4",
"L. c #0269B4",
"P. c #026BBB",
"I. c #0968B7",
"U. c #1171B3",
"Y. c #276D8D",
"T. c #46578F",
"R. c #506C8F",
"E. c #435BA4",
"W. c #5A76B9",
"Q. c #5069B1",
"!. c #6179BA",
"~. c #086EC3",
"^. c #5675C8",
"/. c #5B7BD7",
"(. c #536FC4",
"). c #657CC3",
"_. c #627DD4",
"`. c #5F7EE5",
"'. c #987F96",
"]. c #2D8EA9",
"[. c #678CA3",
"{. c #6A87D7",
"}. c #6F88D1",
"|. c #5D82E4",
" X c #5E8FFB",
".X c #6588EA",
"XX c #6D95EC",
"oX c #7494ED",
"OX c #7498ED",
"+X c #7895EA",
"@X c #658CF5",
"#X c #698DF5",
"$X c #648DFE",
"%X c #6A8EFB",
"&X c #6D92F4",
"*X c #6691FD",
"=X c #6C92FB",
"-X c #6D9AF6",
";X c #7395F3",
":X c #7997F2",
">X c #7699F3",
",X c #7A9BF5",
"<X c #7195FA",
"1X c #759AFA",
"2X c #7C9EFA",
"3X c #788FF0",
"4X c #7DA1FB",
"5X c #7EA1F5",
"6X c #5C82D9",
"7X c #979796",
"8X c #8F8D8A",
"9X c #B19089",
"0X c #95A7B3",
"qX c #A7A8A7",
"wX c #B7B7B7",
"eX c #B2AFAE",
"rX c #91A0A4",
"tX c #C99A8C",
"yX c #CBA587",
"uX c #D5AA8A",
"iX c #D9B28F",
"pX c #E7BA96",
"aX c #EAB78D",
"sX c #CBAFB0",
"dX c #E7ABAB",
"fX c #FAC395",
"gX c #FDCB9B",
"hX c #F7C497",
"jX c #FFD19C",
"kX c #ECC497",
"lX c #C5C0BD",
"zX c #FDCDA2",
"xX c #F4CBA4",
"cX c #FFD2A3",
"vX c #FFD9AB",
"bX c #FFDEB2",
"nX c #EFC5A2",
"mX c #898DCC",
"MX c #819EFB",
"NX c #839BE8",
"BX c #81A2FC",
"VX c #95A8EB",
"CX c #A3AAD3",
"ZX c #9AC2CE",
"AX c #C9C9C8",
"SX c #D9D8D8",
"DX c #D1CACC",
"FX c #E2DDDB",
"GX c #F2CED1",
"HX c #D3E4E5",
"JX c #E7E8E7",
"KX c #F4F5F5",
"LX c #FDFDFD",
"PX c #F7FAF9",
"IX c #EDF0F1",
"UX c #E2E0E0",
/* pixels */
"4XBX4X4XBX4X2X4X2X5XMX2X;X@X$X$X$X$X$X$X$X$X X=X>X:X:X:X:XOX;X$X$X$X$X$X;X}.W.T.Y Y F./.@X$X$X X&X:XoXOX:X,X&X$X$X$X$X$X$X$X$X$X",
"BX5X4XBX2XBXBX2X4X2X,X,X1X1X@X$X$X$X$X$X X*X$X@X1X>XOX>XOX:X>X$X$X$X%XQ.T.S y 7 8 8 > ; F..X%X%XoX:X>XOX>X&X$X$X$X$X$X$X$X$X$X$X",
"1X4XBX5X5X2X5X2X2X2X2X2X2X,X1X$X$X$X$X$X$X$X$X$X%X<X:XOXoX:X<X=X@X(.A > 7 $.*.$.>.] #.[ 6 J |.&XoX:X:XoX;X$X$X$X$X$X$X$X$X$X$X@X",
"$X*X<X2XBX5X2X2X4X2X2X2X,X2X2X>X&X$X$X$X$X$X$X$X$X&X:X+XoXoX:X{.U + 7 >.1.%.a.sXGXsXsXa.o.8 C ).oXoXoX;X@X$X$X$X$X$X$X$X$X$X&X<X",
"$X$X$X%X<X4X5X2X:XMX2X,X2X,X>X2X1X<X$X$X$X$X$X$X$X$X;XoXOXoX).C 6 #.<.1.*.a.PXGXx.GXdXGX'.o.7 C {.oXoX@X$X$X$X$X@X$X$X$X$X=X<X,X",
"$X$X$X$X@X$X<X1X5X2X2X,X2X>X,X>X:X1X<X#X$X$X%X$X$X@X$X<XoX).2 7 <.&.<.-.] DXGX2.z.z.2.z.LXa.>.6 ! :X#X$X$X$X$X$X$X$X$X$X=X>X>X>X",
"$X$X$X$X$X$X$X$X<X>X2X2X2X,X,X:X:X,X>X>X%X$X$X$X$X@X$X%X^., _ 1.<.*.-.-.o.IXdXV.LXGXGXx.GXsX%.,.> _.%X$X$X$X$X$X$X$X%X;X>XOX:X:X",
"$X$X$X$X$X X$X$X$X%X=X1X>X>X,X,X:X>X>X>X>X#X$X$X$X$X@X^.2 _ 1.*.*.-.<.>.' sXsXsXsXUXLXaXdXsX%.1.` J %X$X$X%X$X$X%X#X>XoXOXOX>X:X",
"$X$X$X$X$X*X$X*X$X$X$X$X=X>X>X,X:X>X>XOX:X>X#X@X%X%X_.C _ 1.;.-.&.#.] #.#.#.#.%.] ] a.tXPX9X%.1.>.> /.$X$X$X$X%X;X+XoXNX,X1X2XMX",
"$X$X$X$X$X$X$X$X$X$X$X$X$X$X=X<X>X>X:X:X:XoX>XXX%X.XA 0 1.*.<.>.' ' ' >.1.<.1.1.-.-.;.%.x.O.$.*.1.` U %X$X$X&X&XoXoX{.R.U J H U ",
"$X$X$X$X$X$X$X$X$X$X$X$X$X$X$X@X&X;XOX:X+XoX3XXX3XF.6 <.&.<.<._ _ # . # o.<.;.*.*.1.1.&.&.#._ <.1.#., `.#X#XXXoX}.T.o o 1 R R 3 ",
"$X$X$X$X$X$X$X$X$X$X$X$X$X$X$X$X$X$X#X&X>X+X+XoX^.> #.=.*.*.8 o.' 8 8 X # O.+.e.+.' #.<.>.o.@.#.=.<.8 T.XXoXoX}.A * 8XJXPXLXLXLX",
"$X*X$X$X$X$X$X$X$X$X$X$X$X$X$X$X$X$X$X$X=X;XoXOXY 0 1.&.<.O.N.e.@.+.j.uXM.M.jXhXpXB.d.6 X   X ` $.1.' S {.oX}.C 4 FXLXLXLXPXLXLX",
"$X$X$X$X$X$X$X$X$X$X$X$X$X$X$X$X$X$X#X`./..X=X{., #.=.&.' x vXxXpXpXN.m.Q iXfXfXhXzXM.( s.6 8 0 ] 1.$.> W.XXA 1 JXLXPXLXLXPXLXLX",
"%X$X$X$X$X*X$X$X$X$X$X*X$X$X$X@X$XE.M - N Z F.^.> >.1.$.s E hXgXzXs.eX[.K h.gXfXhXxXs.h.M.l.+.' _ $.1.8 T.Q.= SXLXLXLXLXLXLXKXIX",
"$X$X$X$X$X$X$X$X$X*X$X$X$X$X X@XJ = c.DXJXsXR N > ] *.' s z kXjXN.7XHXY.].& kXfXzXW K [.8XN.uXl.a.' 1.` Y A p wXwXKXLXPXLXqX8XFX",
"$X$X$X$X$X$X$X X$X$X$X$X$X$X%XF.2 FXLXwXrX7XPX(   s a.w q.v N.jXm.UXZXY.rXh xXvXB.4 [.].DX/ gXjXnX+.-.' , * ( 7X^ R wXPX~ R.PXLX",
"4X1X1X1X<X=X=X%X$X$X*X@X@X.XJ   wXLXlXeXAXqXm.R.W xXbXs.v v s.vXQ IX[.T   & g.yXs.R [.].HXh.aXgXiX{ -.'   8XLXLXLXUX( R qXLXLXLX",
"5X2X2X5X2X1X,X2X>X>X;X1X>XE.1 AXKXLXqXDXSX8XLX7XuXpXiXd.v h B.bXs.FXHXY.R N.N.N.E   K ].HXm.kXjXN.0 3.[ 3 LXLXPXPXLXLXR wXLXPXLX",
"2X5X2X2X2X,X2X,X2X>X,X,X,XB 8XPXPXLXLXLXJXLXLXh.aXhXd.p v p.tXM.B.7XUXh.cXjXjXgXcXm.T ZXJXh.cXkXz } 1._ 8XLXPXLXLXLXLXSXh PXLXLX",
"2X5X5X2X2X,X2X,X>X,X:X>X+X< 8XLXIXLXLXPXLXLX9Xp fXgXyX& z z 1   m.iXQ M.gXhXhXgXfXgX/ IX8XB.jXq.v d _ 9 lXLXLXLXLXLXLXLX~ eXLXLX",
"5X2X2X2X2X,X,X,X2X>X:XOXMXF.2 LXwXeXLXPXLXSX0 @.pXpXnXE E g.O     4 h iXfXhXhXfXfXgXm./ uXbXuXn E i yXp SXLXLXLXLXLXLXLXwXqXLXeX",
"2X2X2X2X2X2X2X>X,X>X,X,X2XMXY 3 ~ qXLXPXLXm.#._ N.bXN.s.bXgXu   .     M.vXfXhXhXfXjXd.B.9Xh ( E a g.M.R SXLXLXLXLXLXLXLXSXR 8XwX",
"2X2X,X,X2X2X5X,X,X2X:X:X:X+XNXA p LXKXSXLXf.$.<.t kXM.s.jXfXnXp   .   & yXcXcXjXvXm.. @     & b a W ( wXrXLXLXSXPXLXLXLXAX^ LXLX",
"2X4X,X1X1X<X<X=X=X#X#X$X$X@X@X/.C FXLX7XPXsX' 1.%.O.g.m.jXkXcXE         O h s.Q h X         z E u d.~ IXc.KXLXwXqXLXLXLX7XqXLXPX",
"=X%X*X$X*X*X*X=X*X*X$X@X$X$X@X*XE.2 7Xm.R AXW ' 1.>.` g.cXfXfXpXE 1 O                   h g.nXd.yXM.4 LXwXeXLXLX8X8XJXDX3 SXLXLX",
"$X$X$X@X.XF.J H Y Q.#X*X$X@X$X$X$XE.M B Z N Z # >.1.;.s gXfXfXhXbXN.^ R R 8X+   O 4   p kXcXzXM.9Xt 9 JXLXqXJXLXKXAX~ ~ AXLXLXLX",
" X$X@XQ.N o % $ % @ ; (.*X@X$X$X$X*X*X*X%X.X.XH 8 4.1.` m.cXfXhXjXm.5 p.8XSXeX8X8XN.iXkXgXaXcXs.9 <._ eXLXKXSXLXPXLXwX7XLXLXLXLX",
"$X$XQ.= e j c q.q.b u + Q.=X$X$X@X$X$X X X$X%X!.1 _ 1.$.9 yXcXhXzXN.6 8 6 6 s f.W yXzXhXhXgXiX5 >.1.#.W LXLXLXLXLXPXLX~ 8XSXAXeX",
"$X`.N $ n x x k v k q.e o (.*X$X$X$X$X$X$X#X).0XqX# $.1.#.9 iXcXfXiX5 ' >.o.7 6 z cXkXfXhXxXa [ =.&.-.` 7XLXPXKXKXLXLXLX^ ~ wXSX",
"/.B @ l g q z k v x j q.q * {.$X$X$X@X%X&XoXoX}.ZXR [ 1.3.9 B 9XzXzXp.$.3.3.] 5 iXfXaXzXxXE _ 1.*.&.-.*.8 lXLXAXqXLXPXLXqXwXLXLX",
"Y X 0.e j g p c k x x k E @ J =X$X#XXX;X+XoX#X{.!.R.6 <.] A L.K Q cXaXw.%.#.O.uXgXzXzXM.s [ 1.*.*.-.<.=.%.> AXLX7X7XKXLXAX^ LXLX",
"N e t.r.r 0.r s x k k k b u N .X#X:XXXoXoXoX+XXX=X^.> ] y G.~.S.5 j.vXkXj.j.aXvXpXh.R # %.-.*.&.-.*.-.;.;.` X eXLXqX( [.lXc.R qX",
"N t t.8.5.f 0.u q.k x k c a = {.>X>XoXoXoXoXoX$X@XT.9 _ Z.~.~.H o.' d.kXbXbXgXN., M C.2 $.-.*.<.1.&.;.[ 7 # + o R 7Xm.O * S : * ",
"< g t.7.8.a y.e v k x c k k 1 [.1XoX+XoXXX#X&X$X/.= X.u P S.L.S 4.=.[ 0 s O.{ ` C I.I.I [ 1.1.-.#.` 6 + B F.).!.J - N T._._.`..X",
"N e 9.7.8.5.5.f i k k x x c % Z Q.:X>X>X&X@X*X*XF.6 0 & v.c.A.C ] $.&.*.%.%.;.%.A P.P.A.@.<.' 8 > Z F.^.@X%X&XXXoX+X+X+XOX>X=X$X",
"B r 8.7.8.6.f 0.i c k k k c 1 M < T.!._..X$X@XE.- B : v.b.n.L - N Z 4 y 0 _ ] ' P K.P.J.d 8 2 F.(.`.%X$X$X$X@X&X#XoX&X;XoXoXoX;X",
"F.$ r.8.8.8.f 0.e v k x x k 2 U.A.- - ; B F.(.; V P.* v.b.n.L I I.K.H.G.A.F A , K L L I s 5 W.;X%X$X$X$X$X$X$X$X&XXX+XoXOXoXoX;X",
"Q.+ 6.8.6.8.5.0.t j x v c l 2 J.L.I.G.A.P - = * G.L.V Q n.c.V A.P.I.K.I.I.L.~.Z.3 n.b.m d > Q.<X$X$X$X$X$X$X$X X#X&XoXoX;XoX>XoX",
"6X; 5.8.6.8.5.f l n c k c n D P.L.K.K.P.P.J.S.V P J.P D K G F J.J.L.L.L.K.K.L.F ( b.b.v.8 > Q.oX%X$X$X$X$X$X$X$X$X@X&XoX;XoX;X>X",
"1XU e t.8.8.5.f l a k k c i P P.I.K.K.K.K.K.I.L.S.S.P.S.P S.J.K.K.K.K.P.K.P.I.F L v.b.m . o Q.XX#X%X$X*X$X$X$X$X$X$X%X&X:X:XoX>X",
"5X}.% 6.6.8.8.f 5.i k x c p A.P.K.K.K.K.K.K.J.K.P.P.K.P.P.P.K.K.K.K.K.K.K.K.I.Z.G I L P D.- T.+XXX$X$X$X$X$X$X$X$X$X$X$X#X>XOX>X",
",X,XY r 9.8.6.f 5.i c k c 3 S.P.K.K.K.K.K.K.K.K.K.K.K.K.L.K.K.L.K.K.K.K.K.J.L.I.A.F D S.~.P A }.+X#X$X$X$X$X*X$X$X$X$X$X%X%X;X>X",
"2X5X}.1 f 9.r.f 5.i c x q.3 G.K.J.K.K.K.K.K.K.K.K.K.K.K.L.K.K.K.K.K.K.K.K.K.P.L.I.I.H.K.L.V U +X+XXX%X$X*X$X$X$X$X$X$X$X$X%X%X:X",
"2XBX+XC $ f e f y.e j x k 3 S.P.K.K.K.K.K.K.K.K.K.K.K.K.K.K.L.L.K.K.K.K.K.K.K.K.J.L.K.L.J.; W.+X&X+X&X@X$X$X$X$X$X$X$X%X$X$X$X=X",
"4XBX}.1 f 0.g 0.r.e j x c 4 S.P.K.K.K.K.K.K.P.K.L.K.K.K.K.K.J.L.K.K.K.K.K.L.L.P.K.L.P.I.G.- W.OXXX+XoX@X$X$X$X$X$X$X$X$X$X$X$X$X",
"4X5X+XS 5.9.y.f 8.i k l c u Z.P.K.K.J.K.K.K.K.K.K.K.K.K.K.K.K.P.K.K.K.P.K.K.K.K.L.K.K.P.Z.; {.+X<XXX3X&X$X$X$X$X$X$X$X$X$X$X$X$X",
"BX1XMXR.e 9.6.f 8.e b k q.4 P I.K.P.P.P.P.P.P.P.P.L.P.L.L.K.L.L.K.K.K.K.K.K.K.L.K.K.J.P.M Y NXNX&X+XOX;X%X$X$X$X$X$X$X$X$X$X$X$X",
"MX4XBX}.4 5.t.t w.w c j a + S.~.G.S.A.A.A.S.S.A.S.S.G.G.I.P.L.J.K.K.K.K.K.P.K.K.P.K.P.A.- Q.dX'.+XoXOX:X;X$X$X$X$X$X$X$X$X$X$X$X",
"4X5X4X2XF.r r.e $ % $ % X   P D - - N M N N M N N M < - V S.P.P.K.K.K.K.K.K.K.K.K.J.~.Z.C CXz.a.:XOX;X>X>X=X$X$X$X$X$X$X$X$X$X$X",
"MX4X=X$X|.C X O O .   o C U N A E././.`.`.|.`.`./.}.{.W.N = G S.J.J.I.K.K.K.K.K.K.K.P.S.= q.u.W >X>X;XOX:X>X@X$X$X$X$X$X$X$X$X$X",
"2X&X$X$X@X|.F.Q.^.E.E.Q.|.*X.X.X$X*X$X$X X$X$X$X&X5XOX5XY $ r u N V V J.K.K.K.K.K.K.J.I.- 7 _ f.>X;X>X:X:X>X*X@X$X$X$X$X$X$X$X%X",
"=X$X$X$X$X$X$X$X*X%X%X$X*X$X$X$X X$X$X$X$X$X$X@X-X>X>X,X! @ i c C J.F Z.K.K.P.K.K.K.J.I.V r ..W 2X>X:X>X,X>X>X@X$X$X%X$X$X$X$X$X",
" X$X$X$X$X$X$X$X$X$X$X X$X$X$X$X$X$X$X$X$X@X$X$X,X>X,X:XY r a n V U.I.P D.K.K.K.K.K.P.I.- 6  .Q ,X>X:X2X,XOX>X&X$X*X$X$X$X$X$X$X",
"$X$X$X$X$X$X$X$X$X$X$X$X$X$X@X$X$X$X$X$X$X$X$X<X1X2X2X}.1 e z l B H.J.G.S.K.K.K.K.L.K.I.M 6 } f.1X;X:X+X,X>X,X1X$X$X$X$X$X$X$X$X",
"$X$X$X$X$X$X$X$X$X$X$X$X$X$X$X$X$X$X$X$X*X$X@X2X2X>X2X!.% u x q.4 D.G.I.L.J.L.K.K.L.L.J.* 9 | W 2X>X1X-X:X1X,X2X=X$X$X$X$X$X$X*X",
"$X$X$X$X$X$X$X$X$X$X$X$X$X$X$X$X$X$X$X$X$X$X<X,X,X,XMXW.@ q v c a V G Z.I.K.K.K.K.J.~.F . 9 5.j.VXMXNXVXNX>X,X,X1X#X$X$X$X$X$X$X",
"$X$X$X$X$X$X$X$X$X$X$X$X$X$X$X$X$X$X$X$X$X$X2X2X,X,XMX).% 5 x c x n 4 , F I.~.I.J.H.Z.o 9 t i.i.tX<XCXV.mX5X,X,X5X<X$X$X$X$X$X$X",
"$X$X$X$X$X$X$X$X$X$X$X$X$X$X$X$X$X$X$X$X$X%XMX,XMX1X2X}., q v c k k c j 4 M F F G M o s k.i.i.:.l.VXsXe.mX2X,X,X2X1X*X$X$X$X$X$X",
"$X$X$X$X$X$X$X$X$X$X$X$X$X$X$X$X$X$X$X$X@X<XMX,X2X2X,XXXC $ v c j j j q.a X X O   5 0 | u.9.e.0 u.a.u. .).MX,X2XMX,X<X%X$X$X$X$X",
"$X$X$X$X$X$X$X$X$X$X$X$X$X$X$X$X$X$X$X$X=X2X5X2X2X2X,XBXT.X w q.x k c b > # ..t |  .| | { } 0 ..0 ..`  .mX2X,X2X2X2X2X%X$X$X$X$X",
"$X$X$X$X$X$X$X$X$X$X$X$X$X$X$X$X$X$X$X$X1X5X2X2X2X2X,X,X.XA X & n n z & X  .{ t $ # t | } _ 7.{ ..} |  .}.BX,X1X2X2X2X1X%X$X$X$X",
"$X$X$X$X$X$X$X$X$X$X$X$X$X$X X$X$X$X$X=XBXMX2X2X,X2XBX,X4XrX9 t r w w 6  . . .X     $  .} | } | } | | O.}.MX,X2X2X2X2X2X%X$X$X$X",
"$X$X$X$X$X$X$X$X$X$X$X$X$X$X X$X$X$X$X1X2XMXMX5XBX5X2X2X4X'.{ | } }  .| } | 9       .  .} } } |  .| }  .mX4X2X2X2X2X2XMX1X$X$X$X"
};
