/* XPM */
static char *result[] = {
/* columns rows colors chars-per-pixel */
"64 64 228 2 ",
"   c #301C14",
".  c #0A2613",
"X  c #033818",
"o  c #0C200F",
"O  c #3D221A",
"+  c #3B2722",
"@  c #442415",
"#  c #4A2818",
"$  c #5A2D19",
"%  c #6F3413",
"&  c #68361B",
"*  c #733413",
"=  c #7B3B1A",
"-  c #753819",
";  c #4D3429",
":  c #5A372A",
">  c #483835",
",  c #573C36",
"<  c #643B29",
"1  c #7A3C20",
"2  c #00441C",
"3  c #014E21",
"4  c #015B2A",
"5  c #005327",
"6  c #005E31",
"7  c #254F2D",
"8  c #275934",
"9  c #22502D",
"0  c #03622C",
"q  c #026334",
"w  c #016C3A",
"e  c #066734",
"r  c #176938",
"t  c #00723E",
"y  c #007B3F",
"u  c #0F7639",
"i  c #13753C",
"p  c #157A3C",
"a  c #1C7E3E",
"s  c #127736",
"d  c #14612E",
"f  c #26693A",
"g  c #227D3E",
"h  c #28753B",
"j  c #7C411F",
"k  c #58433A",
"l  c #7F4328",
"z  c #684539",
"x  c #744B3C",
"c  c #784B39",
"v  c #754936",
"b  c #007640",
"n  c #017A42",
"m  c #0D7A41",
"M  c #197541",
"N  c #167A43",
"B  c #1D7F41",
"V  c #287A44",
"C  c #387448",
"Z  c #5B4844",
"A  c #5E524C",
"S  c #654C42",
"D  c #724D44",
"F  c #795447",
"G  c #665953",
"H  c #795B54",
"J  c #4D774D",
"K  c #70625A",
"L  c #766B67",
"P  c #787671",
"I  c #813F1C",
"U  c #84421C",
"Y  c #854525",
"T  c #8B543D",
"R  c #86533E",
"E  c #96583E",
"W  c #895441",
"Q  c #875947",
"!  c #955A45",
"~  c #9C5C43",
"^  c #975B47",
"/  c #8A5C53",
"(  c #A75F45",
")  c #986249",
"_  c #806257",
"`  c #986A57",
"'  c #9A715F",
"]  c #A66348",
"[  c #AB6D56",
"{  c #B67558",
"}  c #B36B4C",
"|  c #91706A",
" . c #A87466",
".. c #B77666",
"X. c #BB7B75",
"o. c #A7746C",
"O. c #C3795A",
"+. c #03873D",
"@. c #15813E",
"#. c #1A803E",
"$. c #12883F",
"%. c #159D3A",
"&. c #15A73D",
"*. c #018444",
"=. c #028C45",
"-. c #0C8A42",
";. c #028C49",
":. c #0E8741",
">. c #138642",
",. c #1A8542",
"<. c #138943",
"1. c #1A8B45",
"2. c #178649",
"3. c #029345",
"4. c #0B9445",
"5. c #029A46",
"6. c #0A9A47",
"7. c #019449",
"8. c #019D49",
"9. c #0A9B49",
"0. c #0C9748",
"q. c #1A924A",
"w. c #179A47",
"e. c #1C9C53",
"r. c #278846",
"t. c #338A47",
"y. c #2B944B",
"u. c #259849",
"i. c #35944B",
"p. c #35994F",
"a. c #278D56",
"s. c #269654",
"d. c #379B57",
"f. c #38895A",
"g. c #0DA246",
"h. c #02A34A",
"j. c #0BA249",
"k. c #02AC4A",
"l. c #02A247",
"z. c #14A445",
"x. c #1BA544",
"c. c #14A349",
"v. c #1DAB4A",
"b. c #18A845",
"n. c #1CB24B",
"m. c #22A446",
"M. c #24A54A",
"N. c #23AA4A",
"B. c #2BAD4B",
"V. c #28A54A",
"C. c #39AD4E",
"Z. c #33A94D",
"A. c #27B24C",
"S. c #33B24C",
"D. c #39B34F",
"F. c #39A756",
"G. c #26B351",
"H. c #36B351",
"J. c #3DB555",
"K. c #2FA250",
"L. c #4E8851",
"P. c #7A8059",
"I. c #46AB5A",
"U. c #4CB65C",
"Y. c #47B85B",
"T. c #5E8763",
"R. c #509868",
"E. c #4EAD62",
"W. c #4AA567",
"Q. c #57AD68",
"!. c #48B266",
"~. c #5BB56A",
"^. c #56B568",
"/. c #55A773",
"(. c #5BBD76",
"). c #6BA87A",
"_. c #65B476",
"`. c #58C272",
"'. c #82925C",
"]. c #91886E",
"[. c #A7816E",
"{. c #B38677",
"}. c #AB8775",
"|. c #C6847F",
" X c #6EBF86",
".X c #75BA8A",
"XX c #75C58C",
"oX c #7CC693",
"OX c #939392",
"+X c #BD8783",
"@X c #A8988B",
"#X c #90A98C",
"$X c #B1B1B0",
"%X c #CB9791",
"&X c #D8A09D",
"*X c #D4B7B4",
"=X c #8DC99C",
"-X c #86C898",
";X c #97C89F",
":X c #99CEA6",
">X c #9AD4AA",
",X c #A2CEAA",
"<X c #A3D3AC",
"1X c #ABD4B3",
"2X c #ACD7B7",
"3X c #B6D8BC",
"4X c #BCDCC4",
"5X c #D6CBCB",
"6X c #C5DDCA",
"7X c #D9D3CE",
"8X c #DADAD9",
"9X c #C9D1CD",
"0X c #E5DDDA",
"qX c #E0D4CB",
"wX c #C8E2CC",
"eX c #DBEBDD",
"rX c #D3E5D7",
"tX c #CCE2D1",
"yX c #E9E3DE",
"uX c #DEEBE2",
"iX c #E2EDE4",
"pX c #E6EBEA",
"aX c #EBF2ED",
"sX c #E5F0E5",
"dX c #EDF4F2",
"fX c #FFFFFF",
"gX c #F5F9F7",
"hX c #F5EBEC",
/* pixels */
"fXfXfXfXfXfXfXfXfXfXfXfXfXfXfXfXfXfXfXfXfXfXfXfXfXfXfXfXfXfXfXfXfXfXfXfXfXfXfXfXfXfXfXfXfXfXfXfXfXfXfXfXfXfXfXfXfXfXfXfXfXfXfXfX",
"fXfXfXfXfXfXfXfXfXfXfXfXfXfXfXfXfXfXfXfXfXfXfXfXfXfXfXfXfXfXfXfXfXfXfXfXfXfXfXfXfXfXfXfXfXfXfXfXfXfXfXfXfXfXfXfXfXfXfXfXfXfXfXfX",
"fXfXfXfXfXfXfXfXfXfXfXfXfXfXfXfXfXfXfXfXfXfXfXfXfXfXfXfXfXfXfXfXfXfXfXfXfXfXfXfXfXfXfXfXfXfXfXfXfXfXfXfXfXfXfXfXfXfXfXfXfXfXfXfX",
"fXfXfXfXfXfXfXfXfXfXfXfXfXfXfXfXfXfXfXfXfXfXfXfXfXfXfXfXfXfXfXfXfXfXfXfXfXfXfXfXfXfXfXfXfXfXfXfXfXfXfXfXfXfXfXfXfXfXfXfXfXfXfXfX",
"fXfXfXfXfXfXfXfXfXfXfXfXfXfXfXfXfXfXfXfXfXfXfXfXfXfXfXfXfXfXfXgXgXfXfXfXfXfXfXfXfXfXfXfXfXfXfXfXfXfXfXfXfXfXfXfXfXfXfXfXfXfXfXfX",
"fXfXfXfXfXfXfXfXfXfXfXfXfXfXfXfXgXdXdXaXeXrXwX3X2X<X>X-XoXXXXXXX.XXX.XoX-X:X>X2X4XtXtXuXyXaXdXfXfXfXfXfXfXfXfXfXfXfXfXfXfXfXfXfX",
"fXfXfXfXfXfXfXfXfXfXfXfXfXfXfXpXuXtX2XXX!.F.u.u.,.B u 0 4 0 4 5 5 5 4 4 4 q u 2.s.F.!.`.oX2X6XtXaXfXfXfXfXfXfXfXfXfXfXfXfXfXfXfX",
"fXfXfXfXfXfXfXfXfXfXfXfXfXfXdX2X4X8X-Xm 4 5 2 2 2 X X X . . . . o o o o . . o X X X 3 0 <.>XwX,X-XdXfXfXfXfXfXfXfXfXfXfXfXfXfXfX",
"fXfXfXfXfXfXfXfXfXfXfXfXfXfXiX~._.2X2X:X#X_.R.R.f.f.V V f f 8 7 7 7 9 8 8 f C L.L.R..X.X-X-X`.S.^.aXfXfXfXfXfXfXfXfXfXfXfXfXfXfX",
"fXfXfXfXfXfXfXfXfXfXfXfXfXfXiX~.D.=X_.J.!.^.Q.I.d.a.a.a.a.a.a.a.a.s.s.s.e.e.)._.(.(.(.!.Y.J.U.Y.~.aXfXfXfXfXfXfXfXfXfXfXfXfXfXfX",
"fXfXfXfXfXfXfXfXfXfXfXfXfXfXeX~.S.-X(.&.y.i.i.t.t.B t w w w t y t b n *.*.+./.I.%.x.x.B.D.U.U.Y.^.sXfXfXfXfXfXfXfXfXfXfXfXfXfXfX",
"fXfXfXfXfXfXfXfXfXfXfXfXfXfXiX~.S.(.~.x.V.K.p.i.y.,.n m b n n n n *.*.*.*.=./.W.m.B.B.C.J.Y.U.Y.^.iXfXfXfXfXfXfXfXfXfXfXfXfXfXfX",
"fXfXfXfXfXfXfXfXfXfXfXfXfXfXeX^.S.J.J.x.m.y.i.i.t.,.y b b b n *.*.*.*.*.;.=./.W.x.V.B.S.S.D.U.!.E.iXfXfXfXfXfXfXfXfXfXfXfXfXfXfX",
"fXfXfXfXfXfXfXfXfXfXfXfXfXfXeX^.D.A.v.M.m.u.i.i.t.r.b b b b n n n *.*.*.;.=./.W.m.B.B.S.S.Y.U.Y.E.sXfXfXfXfXfXfXfXfXfXfXfXfXfXfX",
"fXfXfXfXfXfXfXfXfXfXfXfXfXfXyX^.D.N.M.x.u.u.y.t.t.r.b b b b n n n *.*.*.*.=.W.W.w.V.B.A.B.H.U.Y.E.iXfXfXfXfXfXfXfXfXfXfXfXfXfXfX",
"fXfXfXfXfXfXfXfXfXfXfXfXfXfXiX^.S.N.b.z.w.u.r.r.t.r.t t b b b n n *.+.*.*.=.R.F.%.V.N.v.A.S.Y.Y.U.iXfXfXfXfXfXfXfXfXfXfXfXfXfXfX",
"fXfXfXfXfXfXfXfXfXfXfXfXfXfXiXQ.B.N.v.c.w.q.r.r.t.g w t t t b n y n n *.;.*.W.F.w.c.c.v.n.A.Y.D.I.aXfXfXfXfXfXfXfXfXfXfXfXfXfXfX",
"fXfXfXfXfXfXfXfXfXfXfXfXfXfXfXwX^.A.c.c.0.1.$.r.r.a w t t t b b y n *.*.*.*.R.d.5.j.k.k.k.n.H.I.2XfXfXfXfXfXfXfXfXfXfXfXfXfXfXfX",
"fXfXfXfXfXfXfXfXfXfXfXfXfXfXfXfX,XI.I.s.q.q.r.r.r.h q w w w t t t y n *.n *.d.s.5.6.9.j.b.N.C.:XfXfXfXfXfXfXfXfXfXfXfXfXfXfXfXfX",
"fXfXfXfXfXfXfXfXfXfXfXfXfXfXfXfX:XF.u.y.y.t.r.r.r.V V N p p p M N N N B 2.,.t.2.q.q.q.e.c.Z.n.-XfXfXfXfXfXfXfXfXfXfXfXfXfXfXfXfX",
"fXfXfXfXfXfXfXfXfXfXfXfXfXfXfXfX:XD.N.9.4.$.a g h h r r r M M M M M M N m r.a.:.3.5.8.h.k.G.n.-XfXgXfXfXfXfXfXfXfXfXfXfXfXfXfXfX",
"fXfXfXfXfXfXfXfXfXfXfXfXfXfXfXfX,XC.v.9.4.4.>.B V h r 4 6 6 6 6 w w t b b 2.d.;.3.l.h.h.k.G.&.-XfXfXfXfXfXfXfXfXfXfXfXfXfXfXfXfX",
"fXfXfXfXfXfXfXfXfXfXfXfXfXfXfXfX,XC.v.g.6.3.-.,.B g M q 6 q e b w b b n n 2.d.;.7.8.h.h.k.G.b.oXfXfXfXfXfXfXfXfXfXfXfXfXfXfXfXfX",
"fXfXfXfXfXfXfXfXfXfXfXfXfXfXfXfX<XC.v.g.5.3.-.,.B B r q q b w w b b b n n 2.p.7.8.8.h.h.k.n.&.-XfXfXfXfXfXfXfXfXfXfXfXfXfXfXfXfX",
"fXfXfXfXfXfXfXfXfXfXfXfXfXfXfXfX,XC.v.c.6.3.-.,.#.r.r q e w w w w b b b n 2.d.;.8.8.8.h.k.G.b.-XfXfXfXfXfXfXfXfXfXfXfXfXfXfXfXfX",
"fXfXfXfXfXfXfXfXfXfXfXfXfXfXgXfX<XC.v.g.0.7.=.,.#.#.i w w w b b b b b n n 2.s.;.7.8.8.h.k.n.z.=XfXfXfXfXfXfXfXfXfXfXfXfXfXfXfXfX",
"fXfXfXfXfXfXfXfXfXfXfXfXfXfXfXfX1XC.v.g.6.7.=.,.#.#.i w w w b w t b b b n m y.7.8.5.h.h.k.n.c.=XfXfXfXfXfXfXfXfXfXfXfXfXfXfXfXfX",
"fXfXfXfXfXfXfXfXfXfXfXfXfXfXfXfX2XC.v.g.6.3.-.$.#.a i w w w w b b b b b n >.u.7.7.8.8.h.k.n.z.=XfXfXfXfXfXfXfXfXfXfXfXfXfXfXfXfX",
"fXfXfXfXfXfXfXfXfXfXfXfXfXfXfXfX3XZ.x.j.6.3.=.$.#.a i w w w w b b b n n n >.a.=.7.8.l.h.k.n.g.:XfXfXfXfXfXfXfXfXfXfXfXfXfXfXfXfX",
"fXfXfXfXfXfXfXfXfXfXfXfXfXfXfXfX3XF.v.j.5.3.=.>.#.#.p w w w w b b b n n n 2.q.3.7.5.8.h.l.n.b.<XfXgXfXfXfXfXfXfXfXfXfXfXfXfXfXfX",
"fXfXfXfXfXfXfXfXfXfXfXfXfXfXfXfX3XC.N.j.5.3.=.:.,.g p w w w b t b b b b n <.q.;.7.3.l.h.l.n.x.1XfXfXfXfXfXfXfXfXfXfXfXfXfXfXfXfX",
"fXfXfXfXfXfXfXfXfXfXfXfXfXfXfXfX6XI.M.j.5.3.-.-.@.a p q q w t w w b b n b 2.q.=.7.5.l.h.h.n.x.<XfXfXfXfXfXfXfXfXfXfXfXfXfXfXfXfX",
"fXfXfXfXfXfXfXfXfXfXfXfXfXfXfXfX4XI.N.g.5.=.-.+.@.a i w w w w t b b b b n N q.;.;.5.8.h.h.v.m.2XfXfXfXfXfXfXfXfXfXfXfXfXfXfXfXfX",
"fXfXfXfXfXfXfXfXfXfXfXfXfXfXfXfXwXI.N.g.5.3.=.$.@.a p q w w w t b b b n n >.q.;.7.8.8.h.h.n.V.3XfXfXfXfXfXfXfXfXfXfXfXfXfXfXfXfX",
"fXfXfXfXfXfXfXfXfXfXfXfXfXfXfXfXwXI.V.g.3.3.-.$.@.a a q w w t t w b b n b ,.q.=.;.7.8.l.h.G.V.3XfXfXfXfXfXfXfXfXfXfXfXfXfXfXfXfX",
"fXfXfXfXfXfXfXfXfXfXfXfXfXfXgXfXtXI.N.g.5.4.<.$.@.#.a w w w w t b b b b b ,.q.;.7.7.8.l.j.G.m.3XfXfXfXfXfXfXfXfXfXfXfXfXfXfXfXfX",
"fXfXfXfXfXfXfXfXfXfXfXfXfXfXfXfXtXI.V.g.6.=.$.,.@.a p w w t t t b b b n b ,.q.=.7.7.8.l.h.N.u.4XfXgXfXfXfXfXfXfXfXfXfXfXfXfXfXfX",
"fXfXfXfXfXfXfXfXfXfXfXfXfXfXfXfXrXU.B.9.6.3.+.<.@.a a w w w w t b b b n b 1.<.;.7.7.8.8.j.v.N.4XfXfXfXfXfXfXfXfXfXfXfXfXfXfXfXfX",
"fXfXfXfXfXfXfXfXfXfXfXfXfXfXfXfXrXQ.B.e.6.3.+.,.@.a p w w t t t w b b b b 1.q.;.7.7.8.l.j.v.M.6XfXfXfXfXfXfXfXfXfXfXfXfXfXfXfXfX",
"fXfXfXfXfXfXfXfXfXfXfXfXfXfXfXfXeXQ.B.c.4.3.<.$.a a p t t w t w b b b n b ,.1.=.7.7.8.l.h.v.V.wXfXfXfXfXfXfXfXfXfXfXfXfXfXfXfXfX",
"fXfXfXfXfXfXfXfXfXfXfXfXfXfXfXfXeXQ.B.w.4.=.$.$.@.a p w t w t t b b b b y ,.q.=.3.3.5.l.j.v.p.rXfXfXfXfXfXfXfXfXfXfXfXfXfXfXfXfX",
"fXfXfXfXfXfXfXfXfXfXfXfXfXfXfXfXuX_.Z.x.0.4.$.$.@.a p t t t t t t b b b y 1.1.=.3.3.5.8.j.N.K.rXfXfXfXfXfXfXfXfXfXfXfXfXfXfXfXfX",
"fXfXfXfXfXfXfXfXfXfXfXfXfXfXfXfX9X~.Z.u.0.-.-.$.#.g s t w t t t b b b b y ,.1.=.7.3.3.l.g.N.Z.9XfXgXfXfXfXfXfXfXfXfXfXfXfXfXfXfX",
"fXfXfXfXfXfXfXfXfXfXfXfXfXfXfXhX@X~.Z.u.w.4.>.,.#.#.#.w w t t t w b b n n ,.2.=.;.7.5.8.g.V.Z.@X0XfXfXfXfXfXfXfXfXfXfXfXfXfXfXfX",
"fXfXfXfXfXfXfXfXfXfXfXfXfXfXfX8X..'.N.c.w.4.<.$.#.#.s t w t t w b b b b n 1.1.=.;.3.8.8.g.v.L.) qXfXfXfXfXfXfXfXfXfXfXfXfXfXfXfX",
"fXfXfXfXfXfXfXfXfXfXfXfXfXfXfX8Xo.O.].d.4.+.$.#.#.#.g w w t w t w b b b n ,.1.*.=.3.%.+.&.L.] / 5XfXgXfXfXfXfXfXfXfXfXfXfXfXfXfX",
"fXfXfXfXfXfXfXfXfXfXfXfXfXfXfXyXL _ %X*X@XT.t.B @.s i q w w t t b b b b n +.$.+.=.e.L.L ) ] / H 5XfXfXfXfXfXfXfXfXfXfXfXfXfXfXfX",
"fXfXfXfXfXfXfXfXfXfXfXfXfXgXfX0X}./ G | +X&X%X}.| J C r r e 0 q e d d d r J T.T.}.+X%X..) S H [ qXfXfXfXfXfXfXfXfXfXfXfXfXfXfXfX",
"fXfXfXfXfXfXfXfXfXfXfXfXfXfXfX0X{.O.~ k k Z | | o.X.%XX.}.}.[.o. .o. .o.....X.X.{.| K Z x W [ [ 7XfXfXfXfXfXfXfXfXfXfXfXfXfXfXfX",
"fXfXfXfXfXfXfXfXfXfXfXfXfXfXfX0X[.[.) ] ) x k > > ; O ; & z v v v D < < : ; G Z , ; c E } ^ [ o.5XfXfXfXfXfXfXfXfXfXfXfXfXfXfXfX",
"fXfXfXfXfXfXfXfXfXfXfXfXfXfXfXyXo. .[ ) ] ( ) z Q c < $ #   @ @ # # $   @ < / R ^ c ( ( ( ( ` / 5XfXfXfXfXfXfXfXfXfXfXfXfXfXfXfX",
"fXfXfXfXfXfXfXfXfXfXfXfXfXgXfXyX{._ K Q ] ) E z R T Y = j # U U I I Y $ 1 ~ ^ ! E x ( ( ~ F H ` qXfXfXfXfXfXfXfXfXfXfXfXfXfXfXfX",
"fXfXfXfXfXfXfXfXfXfXfXfXfXfXfXyX{. .` x D W Q S W R l = * # = j I I I # * W ^ ~ E z R z z ) { ` qXfXfXfXfXfXfXfXfXfXfXfXfXfXfXfX",
"fXfXfXfXfXfXfXfXfXfXfXfXfXfXfXgX+X' ..[ D z S > z z z & & @ - - I I I @ < R W z z z R x ^ } [ ' pXfXfXfXfXfXfXfXfXfXfXfXfXfXfXfX",
"fXfXfXfXfXfXfXfXfXfXfXfXfXfXgXfX5X' ..[ Q Q ^ Q x z + # O   @ @   @ # O # < Z c E E ] R ^ O.^ @XfXfXfXfXfXfXfXfXfXfXfXfXfXfXfXfX",
"fXfXfXfXfXfXfXfXfXfXfXfXfXfXfXfXfX*X' ) Q Q ^ W T c : j - = = - @ * I I Y T D T E E ] T W Q OXgXfXfXfXfXfXfXfXfXfXfXfXfXfXfXfXfX",
"fXfXfXfXfXfXfXfXfXfXfXfXfXfXfXfXgXfX8X@XF D Q W ! c ; j % % % % @ I = 1 I W D ^ ( ! R z L 4XfXgXfXfXfXfXfXfXfXfXfXfXfXfXfXfXfXfX",
"fXfXfXfXfXfXfXfXfXfXfXfXfXfXfXfXfXfXfXfX8X$X| F z : # & % % * * @ * - = I 1 , z S L OX9XgXfXfXfXfXfXfXfXfXfXfXfXfXfXfXfXfXfXfXfX",
"fXfXfXfXfXfXfXfXfXfXfXfXfXfXfXfXfXfXgXfXgXfXfX8X3XOXP K A Z , > ; , Z Z G P OX$X8XdXfXfXfXgXfXfXfXfXfXfXfXfXfXfXfXfXfXfXfXfXfXfX",
"fXfXfXfXfXfXfXfXfXfXfXfXfXfXfXfXfXfXfXfXfXgXfXfXfXfXfXfXgXdXpXpXpXpXpXdXfXgXgXgXfXfXgXfXfXfXfXfXfXfXfXfXfXfXfXfXfXfXfXfXfXfXfXfX",
"fXfXfXfXfXfXfXfXfXfXfXfXfXfXfXfXfXfXfXfXfXfXfXfXgXgXfXfXfXfXfXfXfXfXfXfXfXfXgXgXfXfXfXfXfXfXfXfXfXfXfXfXfXfXfXfXfXfXfXfXfXfXfXfX",
"fXfXfXfXfXfXfXfXfXfXfXfXfXfXfXfXfXfXfXfXfXfXfXfXfXfXfXfXfXfXfXfXfXfXfXfXfXfXfXfXfXfXfXfXfXfXfXfXfXfXfXfXfXfXfXfXfXfXfXfXfXfXfXfX",
"fXfXfXfXfXfXfXfXfXfXfXfXfXfXfXfXfXfXfXfXfXfXfXfXfXfXfXfXfXfXfXfXfXfXfXfXfXfXfXfXfXfXfXfXfXfXfXfXfXfXfXfXfXfXfXfXfXfXfXfXfXfXfXfX",
"fXfXfXfXfXfXfXfXfXfXfXfXfXfXfXfXfXfXfXfXfXfXfXfXfXfXfXfXfXfXfXfXfXfXfXfXfXfXfXfXfXfXfXfXfXfXfXfXfXfXfXfXfXfXfXfXfXfXfXfXfXfXfXfX"
};
